%TF.GenerationSoftware,KiCad,Pcbnew,7.0.1*%
%TF.CreationDate,2023-03-14T16:08:26+01:00*%
%TF.ProjectId,CxCat,43784361-742e-46b6-9963-61645f706362,rev?*%
%TF.SameCoordinates,Original*%
%TF.FileFunction,Legend,Top*%
%TF.FilePolarity,Positive*%
%FSLAX46Y46*%
G04 Gerber Fmt 4.6, Leading zero omitted, Abs format (unit mm)*
G04 Created by KiCad (PCBNEW 7.0.1) date 2023-03-14 16:08:26*
%MOMM*%
%LPD*%
G01*
G04 APERTURE LIST*
%ADD10C,0.150000*%
%ADD11C,0.120000*%
G04 APERTURE END LIST*
D10*
%TO.C,C1*%
X56963333Y-81607380D02*
X56915714Y-81655000D01*
X56915714Y-81655000D02*
X56772857Y-81702619D01*
X56772857Y-81702619D02*
X56677619Y-81702619D01*
X56677619Y-81702619D02*
X56534762Y-81655000D01*
X56534762Y-81655000D02*
X56439524Y-81559761D01*
X56439524Y-81559761D02*
X56391905Y-81464523D01*
X56391905Y-81464523D02*
X56344286Y-81274047D01*
X56344286Y-81274047D02*
X56344286Y-81131190D01*
X56344286Y-81131190D02*
X56391905Y-80940714D01*
X56391905Y-80940714D02*
X56439524Y-80845476D01*
X56439524Y-80845476D02*
X56534762Y-80750238D01*
X56534762Y-80750238D02*
X56677619Y-80702619D01*
X56677619Y-80702619D02*
X56772857Y-80702619D01*
X56772857Y-80702619D02*
X56915714Y-80750238D01*
X56915714Y-80750238D02*
X56963333Y-80797857D01*
X57915714Y-81702619D02*
X57344286Y-81702619D01*
X57630000Y-81702619D02*
X57630000Y-80702619D01*
X57630000Y-80702619D02*
X57534762Y-80845476D01*
X57534762Y-80845476D02*
X57439524Y-80940714D01*
X57439524Y-80940714D02*
X57344286Y-80988333D01*
%TO.C,R11*%
X41902142Y-105222619D02*
X41568809Y-104746428D01*
X41330714Y-105222619D02*
X41330714Y-104222619D01*
X41330714Y-104222619D02*
X41711666Y-104222619D01*
X41711666Y-104222619D02*
X41806904Y-104270238D01*
X41806904Y-104270238D02*
X41854523Y-104317857D01*
X41854523Y-104317857D02*
X41902142Y-104413095D01*
X41902142Y-104413095D02*
X41902142Y-104555952D01*
X41902142Y-104555952D02*
X41854523Y-104651190D01*
X41854523Y-104651190D02*
X41806904Y-104698809D01*
X41806904Y-104698809D02*
X41711666Y-104746428D01*
X41711666Y-104746428D02*
X41330714Y-104746428D01*
X42854523Y-105222619D02*
X42283095Y-105222619D01*
X42568809Y-105222619D02*
X42568809Y-104222619D01*
X42568809Y-104222619D02*
X42473571Y-104365476D01*
X42473571Y-104365476D02*
X42378333Y-104460714D01*
X42378333Y-104460714D02*
X42283095Y-104508333D01*
X43806904Y-105222619D02*
X43235476Y-105222619D01*
X43521190Y-105222619D02*
X43521190Y-104222619D01*
X43521190Y-104222619D02*
X43425952Y-104365476D01*
X43425952Y-104365476D02*
X43330714Y-104460714D01*
X43330714Y-104460714D02*
X43235476Y-104508333D01*
%TO.C,C9*%
X29718333Y-105737380D02*
X29670714Y-105785000D01*
X29670714Y-105785000D02*
X29527857Y-105832619D01*
X29527857Y-105832619D02*
X29432619Y-105832619D01*
X29432619Y-105832619D02*
X29289762Y-105785000D01*
X29289762Y-105785000D02*
X29194524Y-105689761D01*
X29194524Y-105689761D02*
X29146905Y-105594523D01*
X29146905Y-105594523D02*
X29099286Y-105404047D01*
X29099286Y-105404047D02*
X29099286Y-105261190D01*
X29099286Y-105261190D02*
X29146905Y-105070714D01*
X29146905Y-105070714D02*
X29194524Y-104975476D01*
X29194524Y-104975476D02*
X29289762Y-104880238D01*
X29289762Y-104880238D02*
X29432619Y-104832619D01*
X29432619Y-104832619D02*
X29527857Y-104832619D01*
X29527857Y-104832619D02*
X29670714Y-104880238D01*
X29670714Y-104880238D02*
X29718333Y-104927857D01*
X30194524Y-105832619D02*
X30385000Y-105832619D01*
X30385000Y-105832619D02*
X30480238Y-105785000D01*
X30480238Y-105785000D02*
X30527857Y-105737380D01*
X30527857Y-105737380D02*
X30623095Y-105594523D01*
X30623095Y-105594523D02*
X30670714Y-105404047D01*
X30670714Y-105404047D02*
X30670714Y-105023095D01*
X30670714Y-105023095D02*
X30623095Y-104927857D01*
X30623095Y-104927857D02*
X30575476Y-104880238D01*
X30575476Y-104880238D02*
X30480238Y-104832619D01*
X30480238Y-104832619D02*
X30289762Y-104832619D01*
X30289762Y-104832619D02*
X30194524Y-104880238D01*
X30194524Y-104880238D02*
X30146905Y-104927857D01*
X30146905Y-104927857D02*
X30099286Y-105023095D01*
X30099286Y-105023095D02*
X30099286Y-105261190D01*
X30099286Y-105261190D02*
X30146905Y-105356428D01*
X30146905Y-105356428D02*
X30194524Y-105404047D01*
X30194524Y-105404047D02*
X30289762Y-105451666D01*
X30289762Y-105451666D02*
X30480238Y-105451666D01*
X30480238Y-105451666D02*
X30575476Y-105404047D01*
X30575476Y-105404047D02*
X30623095Y-105356428D01*
X30623095Y-105356428D02*
X30670714Y-105261190D01*
%TO.C,M1*%
X59515476Y-127252619D02*
X59515476Y-126252619D01*
X59515476Y-126252619D02*
X59848809Y-126966904D01*
X59848809Y-126966904D02*
X60182142Y-126252619D01*
X60182142Y-126252619D02*
X60182142Y-127252619D01*
X61182142Y-127252619D02*
X60610714Y-127252619D01*
X60896428Y-127252619D02*
X60896428Y-126252619D01*
X60896428Y-126252619D02*
X60801190Y-126395476D01*
X60801190Y-126395476D02*
X60705952Y-126490714D01*
X60705952Y-126490714D02*
X60610714Y-126538333D01*
%TO.C,J3*%
X32707619Y-96813333D02*
X33421904Y-96813333D01*
X33421904Y-96813333D02*
X33564761Y-96860952D01*
X33564761Y-96860952D02*
X33660000Y-96956190D01*
X33660000Y-96956190D02*
X33707619Y-97099047D01*
X33707619Y-97099047D02*
X33707619Y-97194285D01*
X32707619Y-96432380D02*
X32707619Y-95813333D01*
X32707619Y-95813333D02*
X33088571Y-96146666D01*
X33088571Y-96146666D02*
X33088571Y-96003809D01*
X33088571Y-96003809D02*
X33136190Y-95908571D01*
X33136190Y-95908571D02*
X33183809Y-95860952D01*
X33183809Y-95860952D02*
X33279047Y-95813333D01*
X33279047Y-95813333D02*
X33517142Y-95813333D01*
X33517142Y-95813333D02*
X33612380Y-95860952D01*
X33612380Y-95860952D02*
X33660000Y-95908571D01*
X33660000Y-95908571D02*
X33707619Y-96003809D01*
X33707619Y-96003809D02*
X33707619Y-96289523D01*
X33707619Y-96289523D02*
X33660000Y-96384761D01*
X33660000Y-96384761D02*
X33612380Y-96432380D01*
%TO.C,J2*%
X59396666Y-88587619D02*
X59396666Y-89301904D01*
X59396666Y-89301904D02*
X59349047Y-89444761D01*
X59349047Y-89444761D02*
X59253809Y-89540000D01*
X59253809Y-89540000D02*
X59110952Y-89587619D01*
X59110952Y-89587619D02*
X59015714Y-89587619D01*
X59825238Y-88682857D02*
X59872857Y-88635238D01*
X59872857Y-88635238D02*
X59968095Y-88587619D01*
X59968095Y-88587619D02*
X60206190Y-88587619D01*
X60206190Y-88587619D02*
X60301428Y-88635238D01*
X60301428Y-88635238D02*
X60349047Y-88682857D01*
X60349047Y-88682857D02*
X60396666Y-88778095D01*
X60396666Y-88778095D02*
X60396666Y-88873333D01*
X60396666Y-88873333D02*
X60349047Y-89016190D01*
X60349047Y-89016190D02*
X59777619Y-89587619D01*
X59777619Y-89587619D02*
X60396666Y-89587619D01*
%TO.C,U3*%
X46863095Y-133872619D02*
X46863095Y-134682142D01*
X46863095Y-134682142D02*
X46910714Y-134777380D01*
X46910714Y-134777380D02*
X46958333Y-134825000D01*
X46958333Y-134825000D02*
X47053571Y-134872619D01*
X47053571Y-134872619D02*
X47244047Y-134872619D01*
X47244047Y-134872619D02*
X47339285Y-134825000D01*
X47339285Y-134825000D02*
X47386904Y-134777380D01*
X47386904Y-134777380D02*
X47434523Y-134682142D01*
X47434523Y-134682142D02*
X47434523Y-133872619D01*
X47815476Y-133872619D02*
X48434523Y-133872619D01*
X48434523Y-133872619D02*
X48101190Y-134253571D01*
X48101190Y-134253571D02*
X48244047Y-134253571D01*
X48244047Y-134253571D02*
X48339285Y-134301190D01*
X48339285Y-134301190D02*
X48386904Y-134348809D01*
X48386904Y-134348809D02*
X48434523Y-134444047D01*
X48434523Y-134444047D02*
X48434523Y-134682142D01*
X48434523Y-134682142D02*
X48386904Y-134777380D01*
X48386904Y-134777380D02*
X48339285Y-134825000D01*
X48339285Y-134825000D02*
X48244047Y-134872619D01*
X48244047Y-134872619D02*
X47958333Y-134872619D01*
X47958333Y-134872619D02*
X47863095Y-134825000D01*
X47863095Y-134825000D02*
X47815476Y-134777380D01*
%TO.C,J4*%
X58721666Y-87497619D02*
X58721666Y-88211904D01*
X58721666Y-88211904D02*
X58674047Y-88354761D01*
X58674047Y-88354761D02*
X58578809Y-88450000D01*
X58578809Y-88450000D02*
X58435952Y-88497619D01*
X58435952Y-88497619D02*
X58340714Y-88497619D01*
X59626428Y-87830952D02*
X59626428Y-88497619D01*
X59388333Y-87450000D02*
X59150238Y-88164285D01*
X59150238Y-88164285D02*
X59769285Y-88164285D01*
%TO.C,R14*%
X55237142Y-105222619D02*
X54903809Y-104746428D01*
X54665714Y-105222619D02*
X54665714Y-104222619D01*
X54665714Y-104222619D02*
X55046666Y-104222619D01*
X55046666Y-104222619D02*
X55141904Y-104270238D01*
X55141904Y-104270238D02*
X55189523Y-104317857D01*
X55189523Y-104317857D02*
X55237142Y-104413095D01*
X55237142Y-104413095D02*
X55237142Y-104555952D01*
X55237142Y-104555952D02*
X55189523Y-104651190D01*
X55189523Y-104651190D02*
X55141904Y-104698809D01*
X55141904Y-104698809D02*
X55046666Y-104746428D01*
X55046666Y-104746428D02*
X54665714Y-104746428D01*
X56189523Y-105222619D02*
X55618095Y-105222619D01*
X55903809Y-105222619D02*
X55903809Y-104222619D01*
X55903809Y-104222619D02*
X55808571Y-104365476D01*
X55808571Y-104365476D02*
X55713333Y-104460714D01*
X55713333Y-104460714D02*
X55618095Y-104508333D01*
X57046666Y-104555952D02*
X57046666Y-105222619D01*
X56808571Y-104175000D02*
X56570476Y-104889285D01*
X56570476Y-104889285D02*
X57189523Y-104889285D01*
%TO.C,J1*%
X61261666Y-54322619D02*
X61261666Y-55036904D01*
X61261666Y-55036904D02*
X61214047Y-55179761D01*
X61214047Y-55179761D02*
X61118809Y-55275000D01*
X61118809Y-55275000D02*
X60975952Y-55322619D01*
X60975952Y-55322619D02*
X60880714Y-55322619D01*
X62261666Y-55322619D02*
X61690238Y-55322619D01*
X61975952Y-55322619D02*
X61975952Y-54322619D01*
X61975952Y-54322619D02*
X61880714Y-54465476D01*
X61880714Y-54465476D02*
X61785476Y-54560714D01*
X61785476Y-54560714D02*
X61690238Y-54608333D01*
%TO.C,U5*%
X35433095Y-55552619D02*
X35433095Y-56362142D01*
X35433095Y-56362142D02*
X35480714Y-56457380D01*
X35480714Y-56457380D02*
X35528333Y-56505000D01*
X35528333Y-56505000D02*
X35623571Y-56552619D01*
X35623571Y-56552619D02*
X35814047Y-56552619D01*
X35814047Y-56552619D02*
X35909285Y-56505000D01*
X35909285Y-56505000D02*
X35956904Y-56457380D01*
X35956904Y-56457380D02*
X36004523Y-56362142D01*
X36004523Y-56362142D02*
X36004523Y-55552619D01*
X36956904Y-55552619D02*
X36480714Y-55552619D01*
X36480714Y-55552619D02*
X36433095Y-56028809D01*
X36433095Y-56028809D02*
X36480714Y-55981190D01*
X36480714Y-55981190D02*
X36575952Y-55933571D01*
X36575952Y-55933571D02*
X36814047Y-55933571D01*
X36814047Y-55933571D02*
X36909285Y-55981190D01*
X36909285Y-55981190D02*
X36956904Y-56028809D01*
X36956904Y-56028809D02*
X37004523Y-56124047D01*
X37004523Y-56124047D02*
X37004523Y-56362142D01*
X37004523Y-56362142D02*
X36956904Y-56457380D01*
X36956904Y-56457380D02*
X36909285Y-56505000D01*
X36909285Y-56505000D02*
X36814047Y-56552619D01*
X36814047Y-56552619D02*
X36575952Y-56552619D01*
X36575952Y-56552619D02*
X36480714Y-56505000D01*
X36480714Y-56505000D02*
X36433095Y-56457380D01*
%TO.C,M2*%
X34115476Y-120682619D02*
X34115476Y-119682619D01*
X34115476Y-119682619D02*
X34448809Y-120396904D01*
X34448809Y-120396904D02*
X34782142Y-119682619D01*
X34782142Y-119682619D02*
X34782142Y-120682619D01*
X35210714Y-119777857D02*
X35258333Y-119730238D01*
X35258333Y-119730238D02*
X35353571Y-119682619D01*
X35353571Y-119682619D02*
X35591666Y-119682619D01*
X35591666Y-119682619D02*
X35686904Y-119730238D01*
X35686904Y-119730238D02*
X35734523Y-119777857D01*
X35734523Y-119777857D02*
X35782142Y-119873095D01*
X35782142Y-119873095D02*
X35782142Y-119968333D01*
X35782142Y-119968333D02*
X35734523Y-120111190D01*
X35734523Y-120111190D02*
X35163095Y-120682619D01*
X35163095Y-120682619D02*
X35782142Y-120682619D01*
%TO.C,D11*%
X63555714Y-124217619D02*
X63555714Y-123217619D01*
X63555714Y-123217619D02*
X63793809Y-123217619D01*
X63793809Y-123217619D02*
X63936666Y-123265238D01*
X63936666Y-123265238D02*
X64031904Y-123360476D01*
X64031904Y-123360476D02*
X64079523Y-123455714D01*
X64079523Y-123455714D02*
X64127142Y-123646190D01*
X64127142Y-123646190D02*
X64127142Y-123789047D01*
X64127142Y-123789047D02*
X64079523Y-123979523D01*
X64079523Y-123979523D02*
X64031904Y-124074761D01*
X64031904Y-124074761D02*
X63936666Y-124170000D01*
X63936666Y-124170000D02*
X63793809Y-124217619D01*
X63793809Y-124217619D02*
X63555714Y-124217619D01*
X65079523Y-124217619D02*
X64508095Y-124217619D01*
X64793809Y-124217619D02*
X64793809Y-123217619D01*
X64793809Y-123217619D02*
X64698571Y-123360476D01*
X64698571Y-123360476D02*
X64603333Y-123455714D01*
X64603333Y-123455714D02*
X64508095Y-123503333D01*
X66031904Y-124217619D02*
X65460476Y-124217619D01*
X65746190Y-124217619D02*
X65746190Y-123217619D01*
X65746190Y-123217619D02*
X65650952Y-123360476D01*
X65650952Y-123360476D02*
X65555714Y-123455714D01*
X65555714Y-123455714D02*
X65460476Y-123503333D01*
X61361905Y-121461904D02*
X61838095Y-121461904D01*
X61266667Y-121747619D02*
X61600000Y-120747619D01*
X61600000Y-120747619D02*
X61933333Y-121747619D01*
%TO.C,C6*%
X34758333Y-93037380D02*
X34710714Y-93085000D01*
X34710714Y-93085000D02*
X34567857Y-93132619D01*
X34567857Y-93132619D02*
X34472619Y-93132619D01*
X34472619Y-93132619D02*
X34329762Y-93085000D01*
X34329762Y-93085000D02*
X34234524Y-92989761D01*
X34234524Y-92989761D02*
X34186905Y-92894523D01*
X34186905Y-92894523D02*
X34139286Y-92704047D01*
X34139286Y-92704047D02*
X34139286Y-92561190D01*
X34139286Y-92561190D02*
X34186905Y-92370714D01*
X34186905Y-92370714D02*
X34234524Y-92275476D01*
X34234524Y-92275476D02*
X34329762Y-92180238D01*
X34329762Y-92180238D02*
X34472619Y-92132619D01*
X34472619Y-92132619D02*
X34567857Y-92132619D01*
X34567857Y-92132619D02*
X34710714Y-92180238D01*
X34710714Y-92180238D02*
X34758333Y-92227857D01*
X35615476Y-92132619D02*
X35425000Y-92132619D01*
X35425000Y-92132619D02*
X35329762Y-92180238D01*
X35329762Y-92180238D02*
X35282143Y-92227857D01*
X35282143Y-92227857D02*
X35186905Y-92370714D01*
X35186905Y-92370714D02*
X35139286Y-92561190D01*
X35139286Y-92561190D02*
X35139286Y-92942142D01*
X35139286Y-92942142D02*
X35186905Y-93037380D01*
X35186905Y-93037380D02*
X35234524Y-93085000D01*
X35234524Y-93085000D02*
X35329762Y-93132619D01*
X35329762Y-93132619D02*
X35520238Y-93132619D01*
X35520238Y-93132619D02*
X35615476Y-93085000D01*
X35615476Y-93085000D02*
X35663095Y-93037380D01*
X35663095Y-93037380D02*
X35710714Y-92942142D01*
X35710714Y-92942142D02*
X35710714Y-92704047D01*
X35710714Y-92704047D02*
X35663095Y-92608809D01*
X35663095Y-92608809D02*
X35615476Y-92561190D01*
X35615476Y-92561190D02*
X35520238Y-92513571D01*
X35520238Y-92513571D02*
X35329762Y-92513571D01*
X35329762Y-92513571D02*
X35234524Y-92561190D01*
X35234524Y-92561190D02*
X35186905Y-92608809D01*
X35186905Y-92608809D02*
X35139286Y-92704047D01*
%TO.C,D10*%
X38380714Y-123722619D02*
X38380714Y-122722619D01*
X38380714Y-122722619D02*
X38618809Y-122722619D01*
X38618809Y-122722619D02*
X38761666Y-122770238D01*
X38761666Y-122770238D02*
X38856904Y-122865476D01*
X38856904Y-122865476D02*
X38904523Y-122960714D01*
X38904523Y-122960714D02*
X38952142Y-123151190D01*
X38952142Y-123151190D02*
X38952142Y-123294047D01*
X38952142Y-123294047D02*
X38904523Y-123484523D01*
X38904523Y-123484523D02*
X38856904Y-123579761D01*
X38856904Y-123579761D02*
X38761666Y-123675000D01*
X38761666Y-123675000D02*
X38618809Y-123722619D01*
X38618809Y-123722619D02*
X38380714Y-123722619D01*
X39904523Y-123722619D02*
X39333095Y-123722619D01*
X39618809Y-123722619D02*
X39618809Y-122722619D01*
X39618809Y-122722619D02*
X39523571Y-122865476D01*
X39523571Y-122865476D02*
X39428333Y-122960714D01*
X39428333Y-122960714D02*
X39333095Y-123008333D01*
X40523571Y-122722619D02*
X40618809Y-122722619D01*
X40618809Y-122722619D02*
X40714047Y-122770238D01*
X40714047Y-122770238D02*
X40761666Y-122817857D01*
X40761666Y-122817857D02*
X40809285Y-122913095D01*
X40809285Y-122913095D02*
X40856904Y-123103571D01*
X40856904Y-123103571D02*
X40856904Y-123341666D01*
X40856904Y-123341666D02*
X40809285Y-123532142D01*
X40809285Y-123532142D02*
X40761666Y-123627380D01*
X40761666Y-123627380D02*
X40714047Y-123675000D01*
X40714047Y-123675000D02*
X40618809Y-123722619D01*
X40618809Y-123722619D02*
X40523571Y-123722619D01*
X40523571Y-123722619D02*
X40428333Y-123675000D01*
X40428333Y-123675000D02*
X40380714Y-123627380D01*
X40380714Y-123627380D02*
X40333095Y-123532142D01*
X40333095Y-123532142D02*
X40285476Y-123341666D01*
X40285476Y-123341666D02*
X40285476Y-123103571D01*
X40285476Y-123103571D02*
X40333095Y-122913095D01*
X40333095Y-122913095D02*
X40380714Y-122817857D01*
X40380714Y-122817857D02*
X40428333Y-122770238D01*
X40428333Y-122770238D02*
X40523571Y-122722619D01*
X42526905Y-125906904D02*
X43003095Y-125906904D01*
X42431667Y-126192619D02*
X42765000Y-125192619D01*
X42765000Y-125192619D02*
X43098333Y-126192619D01*
%TO.C,D7*%
X33422619Y-50733094D02*
X32422619Y-50733094D01*
X32422619Y-50733094D02*
X32422619Y-50494999D01*
X32422619Y-50494999D02*
X32470238Y-50352142D01*
X32470238Y-50352142D02*
X32565476Y-50256904D01*
X32565476Y-50256904D02*
X32660714Y-50209285D01*
X32660714Y-50209285D02*
X32851190Y-50161666D01*
X32851190Y-50161666D02*
X32994047Y-50161666D01*
X32994047Y-50161666D02*
X33184523Y-50209285D01*
X33184523Y-50209285D02*
X33279761Y-50256904D01*
X33279761Y-50256904D02*
X33375000Y-50352142D01*
X33375000Y-50352142D02*
X33422619Y-50494999D01*
X33422619Y-50494999D02*
X33422619Y-50733094D01*
X32422619Y-49828332D02*
X32422619Y-49161666D01*
X32422619Y-49161666D02*
X33422619Y-49590237D01*
%TO.C,D2*%
X58422619Y-50733094D02*
X57422619Y-50733094D01*
X57422619Y-50733094D02*
X57422619Y-50494999D01*
X57422619Y-50494999D02*
X57470238Y-50352142D01*
X57470238Y-50352142D02*
X57565476Y-50256904D01*
X57565476Y-50256904D02*
X57660714Y-50209285D01*
X57660714Y-50209285D02*
X57851190Y-50161666D01*
X57851190Y-50161666D02*
X57994047Y-50161666D01*
X57994047Y-50161666D02*
X58184523Y-50209285D01*
X58184523Y-50209285D02*
X58279761Y-50256904D01*
X58279761Y-50256904D02*
X58375000Y-50352142D01*
X58375000Y-50352142D02*
X58422619Y-50494999D01*
X58422619Y-50494999D02*
X58422619Y-50733094D01*
X57517857Y-49780713D02*
X57470238Y-49733094D01*
X57470238Y-49733094D02*
X57422619Y-49637856D01*
X57422619Y-49637856D02*
X57422619Y-49399761D01*
X57422619Y-49399761D02*
X57470238Y-49304523D01*
X57470238Y-49304523D02*
X57517857Y-49256904D01*
X57517857Y-49256904D02*
X57613095Y-49209285D01*
X57613095Y-49209285D02*
X57708333Y-49209285D01*
X57708333Y-49209285D02*
X57851190Y-49256904D01*
X57851190Y-49256904D02*
X58422619Y-49828332D01*
X58422619Y-49828332D02*
X58422619Y-49209285D01*
%TO.C,C3*%
X51288333Y-113357380D02*
X51240714Y-113405000D01*
X51240714Y-113405000D02*
X51097857Y-113452619D01*
X51097857Y-113452619D02*
X51002619Y-113452619D01*
X51002619Y-113452619D02*
X50859762Y-113405000D01*
X50859762Y-113405000D02*
X50764524Y-113309761D01*
X50764524Y-113309761D02*
X50716905Y-113214523D01*
X50716905Y-113214523D02*
X50669286Y-113024047D01*
X50669286Y-113024047D02*
X50669286Y-112881190D01*
X50669286Y-112881190D02*
X50716905Y-112690714D01*
X50716905Y-112690714D02*
X50764524Y-112595476D01*
X50764524Y-112595476D02*
X50859762Y-112500238D01*
X50859762Y-112500238D02*
X51002619Y-112452619D01*
X51002619Y-112452619D02*
X51097857Y-112452619D01*
X51097857Y-112452619D02*
X51240714Y-112500238D01*
X51240714Y-112500238D02*
X51288333Y-112547857D01*
X51621667Y-112452619D02*
X52240714Y-112452619D01*
X52240714Y-112452619D02*
X51907381Y-112833571D01*
X51907381Y-112833571D02*
X52050238Y-112833571D01*
X52050238Y-112833571D02*
X52145476Y-112881190D01*
X52145476Y-112881190D02*
X52193095Y-112928809D01*
X52193095Y-112928809D02*
X52240714Y-113024047D01*
X52240714Y-113024047D02*
X52240714Y-113262142D01*
X52240714Y-113262142D02*
X52193095Y-113357380D01*
X52193095Y-113357380D02*
X52145476Y-113405000D01*
X52145476Y-113405000D02*
X52050238Y-113452619D01*
X52050238Y-113452619D02*
X51764524Y-113452619D01*
X51764524Y-113452619D02*
X51669286Y-113405000D01*
X51669286Y-113405000D02*
X51621667Y-113357380D01*
%TO.C,R9*%
X64582619Y-43346666D02*
X64106428Y-43679999D01*
X64582619Y-43918094D02*
X63582619Y-43918094D01*
X63582619Y-43918094D02*
X63582619Y-43537142D01*
X63582619Y-43537142D02*
X63630238Y-43441904D01*
X63630238Y-43441904D02*
X63677857Y-43394285D01*
X63677857Y-43394285D02*
X63773095Y-43346666D01*
X63773095Y-43346666D02*
X63915952Y-43346666D01*
X63915952Y-43346666D02*
X64011190Y-43394285D01*
X64011190Y-43394285D02*
X64058809Y-43441904D01*
X64058809Y-43441904D02*
X64106428Y-43537142D01*
X64106428Y-43537142D02*
X64106428Y-43918094D01*
X64582619Y-42870475D02*
X64582619Y-42679999D01*
X64582619Y-42679999D02*
X64535000Y-42584761D01*
X64535000Y-42584761D02*
X64487380Y-42537142D01*
X64487380Y-42537142D02*
X64344523Y-42441904D01*
X64344523Y-42441904D02*
X64154047Y-42394285D01*
X64154047Y-42394285D02*
X63773095Y-42394285D01*
X63773095Y-42394285D02*
X63677857Y-42441904D01*
X63677857Y-42441904D02*
X63630238Y-42489523D01*
X63630238Y-42489523D02*
X63582619Y-42584761D01*
X63582619Y-42584761D02*
X63582619Y-42775237D01*
X63582619Y-42775237D02*
X63630238Y-42870475D01*
X63630238Y-42870475D02*
X63677857Y-42918094D01*
X63677857Y-42918094D02*
X63773095Y-42965713D01*
X63773095Y-42965713D02*
X64011190Y-42965713D01*
X64011190Y-42965713D02*
X64106428Y-42918094D01*
X64106428Y-42918094D02*
X64154047Y-42870475D01*
X64154047Y-42870475D02*
X64201666Y-42775237D01*
X64201666Y-42775237D02*
X64201666Y-42584761D01*
X64201666Y-42584761D02*
X64154047Y-42489523D01*
X64154047Y-42489523D02*
X64106428Y-42441904D01*
X64106428Y-42441904D02*
X64011190Y-42394285D01*
%TO.C,R8*%
X29022619Y-43346666D02*
X28546428Y-43679999D01*
X29022619Y-43918094D02*
X28022619Y-43918094D01*
X28022619Y-43918094D02*
X28022619Y-43537142D01*
X28022619Y-43537142D02*
X28070238Y-43441904D01*
X28070238Y-43441904D02*
X28117857Y-43394285D01*
X28117857Y-43394285D02*
X28213095Y-43346666D01*
X28213095Y-43346666D02*
X28355952Y-43346666D01*
X28355952Y-43346666D02*
X28451190Y-43394285D01*
X28451190Y-43394285D02*
X28498809Y-43441904D01*
X28498809Y-43441904D02*
X28546428Y-43537142D01*
X28546428Y-43537142D02*
X28546428Y-43918094D01*
X28451190Y-42775237D02*
X28403571Y-42870475D01*
X28403571Y-42870475D02*
X28355952Y-42918094D01*
X28355952Y-42918094D02*
X28260714Y-42965713D01*
X28260714Y-42965713D02*
X28213095Y-42965713D01*
X28213095Y-42965713D02*
X28117857Y-42918094D01*
X28117857Y-42918094D02*
X28070238Y-42870475D01*
X28070238Y-42870475D02*
X28022619Y-42775237D01*
X28022619Y-42775237D02*
X28022619Y-42584761D01*
X28022619Y-42584761D02*
X28070238Y-42489523D01*
X28070238Y-42489523D02*
X28117857Y-42441904D01*
X28117857Y-42441904D02*
X28213095Y-42394285D01*
X28213095Y-42394285D02*
X28260714Y-42394285D01*
X28260714Y-42394285D02*
X28355952Y-42441904D01*
X28355952Y-42441904D02*
X28403571Y-42489523D01*
X28403571Y-42489523D02*
X28451190Y-42584761D01*
X28451190Y-42584761D02*
X28451190Y-42775237D01*
X28451190Y-42775237D02*
X28498809Y-42870475D01*
X28498809Y-42870475D02*
X28546428Y-42918094D01*
X28546428Y-42918094D02*
X28641666Y-42965713D01*
X28641666Y-42965713D02*
X28832142Y-42965713D01*
X28832142Y-42965713D02*
X28927380Y-42918094D01*
X28927380Y-42918094D02*
X28975000Y-42870475D01*
X28975000Y-42870475D02*
X29022619Y-42775237D01*
X29022619Y-42775237D02*
X29022619Y-42584761D01*
X29022619Y-42584761D02*
X28975000Y-42489523D01*
X28975000Y-42489523D02*
X28927380Y-42441904D01*
X28927380Y-42441904D02*
X28832142Y-42394285D01*
X28832142Y-42394285D02*
X28641666Y-42394285D01*
X28641666Y-42394285D02*
X28546428Y-42441904D01*
X28546428Y-42441904D02*
X28498809Y-42489523D01*
X28498809Y-42489523D02*
X28451190Y-42584761D01*
%TO.C,R5*%
X44262619Y-43346666D02*
X43786428Y-43679999D01*
X44262619Y-43918094D02*
X43262619Y-43918094D01*
X43262619Y-43918094D02*
X43262619Y-43537142D01*
X43262619Y-43537142D02*
X43310238Y-43441904D01*
X43310238Y-43441904D02*
X43357857Y-43394285D01*
X43357857Y-43394285D02*
X43453095Y-43346666D01*
X43453095Y-43346666D02*
X43595952Y-43346666D01*
X43595952Y-43346666D02*
X43691190Y-43394285D01*
X43691190Y-43394285D02*
X43738809Y-43441904D01*
X43738809Y-43441904D02*
X43786428Y-43537142D01*
X43786428Y-43537142D02*
X43786428Y-43918094D01*
X43262619Y-42441904D02*
X43262619Y-42918094D01*
X43262619Y-42918094D02*
X43738809Y-42965713D01*
X43738809Y-42965713D02*
X43691190Y-42918094D01*
X43691190Y-42918094D02*
X43643571Y-42822856D01*
X43643571Y-42822856D02*
X43643571Y-42584761D01*
X43643571Y-42584761D02*
X43691190Y-42489523D01*
X43691190Y-42489523D02*
X43738809Y-42441904D01*
X43738809Y-42441904D02*
X43834047Y-42394285D01*
X43834047Y-42394285D02*
X44072142Y-42394285D01*
X44072142Y-42394285D02*
X44167380Y-42441904D01*
X44167380Y-42441904D02*
X44215000Y-42489523D01*
X44215000Y-42489523D02*
X44262619Y-42584761D01*
X44262619Y-42584761D02*
X44262619Y-42822856D01*
X44262619Y-42822856D02*
X44215000Y-42918094D01*
X44215000Y-42918094D02*
X44167380Y-42965713D01*
%TO.C,D5*%
X43422619Y-50733094D02*
X42422619Y-50733094D01*
X42422619Y-50733094D02*
X42422619Y-50494999D01*
X42422619Y-50494999D02*
X42470238Y-50352142D01*
X42470238Y-50352142D02*
X42565476Y-50256904D01*
X42565476Y-50256904D02*
X42660714Y-50209285D01*
X42660714Y-50209285D02*
X42851190Y-50161666D01*
X42851190Y-50161666D02*
X42994047Y-50161666D01*
X42994047Y-50161666D02*
X43184523Y-50209285D01*
X43184523Y-50209285D02*
X43279761Y-50256904D01*
X43279761Y-50256904D02*
X43375000Y-50352142D01*
X43375000Y-50352142D02*
X43422619Y-50494999D01*
X43422619Y-50494999D02*
X43422619Y-50733094D01*
X42422619Y-49256904D02*
X42422619Y-49733094D01*
X42422619Y-49733094D02*
X42898809Y-49780713D01*
X42898809Y-49780713D02*
X42851190Y-49733094D01*
X42851190Y-49733094D02*
X42803571Y-49637856D01*
X42803571Y-49637856D02*
X42803571Y-49399761D01*
X42803571Y-49399761D02*
X42851190Y-49304523D01*
X42851190Y-49304523D02*
X42898809Y-49256904D01*
X42898809Y-49256904D02*
X42994047Y-49209285D01*
X42994047Y-49209285D02*
X43232142Y-49209285D01*
X43232142Y-49209285D02*
X43327380Y-49256904D01*
X43327380Y-49256904D02*
X43375000Y-49304523D01*
X43375000Y-49304523D02*
X43422619Y-49399761D01*
X43422619Y-49399761D02*
X43422619Y-49637856D01*
X43422619Y-49637856D02*
X43375000Y-49733094D01*
X43375000Y-49733094D02*
X43327380Y-49780713D01*
%TO.C,C5*%
X29698333Y-108912380D02*
X29650714Y-108960000D01*
X29650714Y-108960000D02*
X29507857Y-109007619D01*
X29507857Y-109007619D02*
X29412619Y-109007619D01*
X29412619Y-109007619D02*
X29269762Y-108960000D01*
X29269762Y-108960000D02*
X29174524Y-108864761D01*
X29174524Y-108864761D02*
X29126905Y-108769523D01*
X29126905Y-108769523D02*
X29079286Y-108579047D01*
X29079286Y-108579047D02*
X29079286Y-108436190D01*
X29079286Y-108436190D02*
X29126905Y-108245714D01*
X29126905Y-108245714D02*
X29174524Y-108150476D01*
X29174524Y-108150476D02*
X29269762Y-108055238D01*
X29269762Y-108055238D02*
X29412619Y-108007619D01*
X29412619Y-108007619D02*
X29507857Y-108007619D01*
X29507857Y-108007619D02*
X29650714Y-108055238D01*
X29650714Y-108055238D02*
X29698333Y-108102857D01*
X30603095Y-108007619D02*
X30126905Y-108007619D01*
X30126905Y-108007619D02*
X30079286Y-108483809D01*
X30079286Y-108483809D02*
X30126905Y-108436190D01*
X30126905Y-108436190D02*
X30222143Y-108388571D01*
X30222143Y-108388571D02*
X30460238Y-108388571D01*
X30460238Y-108388571D02*
X30555476Y-108436190D01*
X30555476Y-108436190D02*
X30603095Y-108483809D01*
X30603095Y-108483809D02*
X30650714Y-108579047D01*
X30650714Y-108579047D02*
X30650714Y-108817142D01*
X30650714Y-108817142D02*
X30603095Y-108912380D01*
X30603095Y-108912380D02*
X30555476Y-108960000D01*
X30555476Y-108960000D02*
X30460238Y-109007619D01*
X30460238Y-109007619D02*
X30222143Y-109007619D01*
X30222143Y-109007619D02*
X30126905Y-108960000D01*
X30126905Y-108960000D02*
X30079286Y-108912380D01*
%TO.C,R10*%
X41902142Y-102712619D02*
X41568809Y-102236428D01*
X41330714Y-102712619D02*
X41330714Y-101712619D01*
X41330714Y-101712619D02*
X41711666Y-101712619D01*
X41711666Y-101712619D02*
X41806904Y-101760238D01*
X41806904Y-101760238D02*
X41854523Y-101807857D01*
X41854523Y-101807857D02*
X41902142Y-101903095D01*
X41902142Y-101903095D02*
X41902142Y-102045952D01*
X41902142Y-102045952D02*
X41854523Y-102141190D01*
X41854523Y-102141190D02*
X41806904Y-102188809D01*
X41806904Y-102188809D02*
X41711666Y-102236428D01*
X41711666Y-102236428D02*
X41330714Y-102236428D01*
X42854523Y-102712619D02*
X42283095Y-102712619D01*
X42568809Y-102712619D02*
X42568809Y-101712619D01*
X42568809Y-101712619D02*
X42473571Y-101855476D01*
X42473571Y-101855476D02*
X42378333Y-101950714D01*
X42378333Y-101950714D02*
X42283095Y-101998333D01*
X43473571Y-101712619D02*
X43568809Y-101712619D01*
X43568809Y-101712619D02*
X43664047Y-101760238D01*
X43664047Y-101760238D02*
X43711666Y-101807857D01*
X43711666Y-101807857D02*
X43759285Y-101903095D01*
X43759285Y-101903095D02*
X43806904Y-102093571D01*
X43806904Y-102093571D02*
X43806904Y-102331666D01*
X43806904Y-102331666D02*
X43759285Y-102522142D01*
X43759285Y-102522142D02*
X43711666Y-102617380D01*
X43711666Y-102617380D02*
X43664047Y-102665000D01*
X43664047Y-102665000D02*
X43568809Y-102712619D01*
X43568809Y-102712619D02*
X43473571Y-102712619D01*
X43473571Y-102712619D02*
X43378333Y-102665000D01*
X43378333Y-102665000D02*
X43330714Y-102617380D01*
X43330714Y-102617380D02*
X43283095Y-102522142D01*
X43283095Y-102522142D02*
X43235476Y-102331666D01*
X43235476Y-102331666D02*
X43235476Y-102093571D01*
X43235476Y-102093571D02*
X43283095Y-101903095D01*
X43283095Y-101903095D02*
X43330714Y-101807857D01*
X43330714Y-101807857D02*
X43378333Y-101760238D01*
X43378333Y-101760238D02*
X43473571Y-101712619D01*
%TO.C,U2*%
X48768095Y-98312619D02*
X48768095Y-99122142D01*
X48768095Y-99122142D02*
X48815714Y-99217380D01*
X48815714Y-99217380D02*
X48863333Y-99265000D01*
X48863333Y-99265000D02*
X48958571Y-99312619D01*
X48958571Y-99312619D02*
X49149047Y-99312619D01*
X49149047Y-99312619D02*
X49244285Y-99265000D01*
X49244285Y-99265000D02*
X49291904Y-99217380D01*
X49291904Y-99217380D02*
X49339523Y-99122142D01*
X49339523Y-99122142D02*
X49339523Y-98312619D01*
X49768095Y-98407857D02*
X49815714Y-98360238D01*
X49815714Y-98360238D02*
X49910952Y-98312619D01*
X49910952Y-98312619D02*
X50149047Y-98312619D01*
X50149047Y-98312619D02*
X50244285Y-98360238D01*
X50244285Y-98360238D02*
X50291904Y-98407857D01*
X50291904Y-98407857D02*
X50339523Y-98503095D01*
X50339523Y-98503095D02*
X50339523Y-98598333D01*
X50339523Y-98598333D02*
X50291904Y-98741190D01*
X50291904Y-98741190D02*
X49720476Y-99312619D01*
X49720476Y-99312619D02*
X50339523Y-99312619D01*
%TO.C,D6*%
X38422619Y-50733094D02*
X37422619Y-50733094D01*
X37422619Y-50733094D02*
X37422619Y-50494999D01*
X37422619Y-50494999D02*
X37470238Y-50352142D01*
X37470238Y-50352142D02*
X37565476Y-50256904D01*
X37565476Y-50256904D02*
X37660714Y-50209285D01*
X37660714Y-50209285D02*
X37851190Y-50161666D01*
X37851190Y-50161666D02*
X37994047Y-50161666D01*
X37994047Y-50161666D02*
X38184523Y-50209285D01*
X38184523Y-50209285D02*
X38279761Y-50256904D01*
X38279761Y-50256904D02*
X38375000Y-50352142D01*
X38375000Y-50352142D02*
X38422619Y-50494999D01*
X38422619Y-50494999D02*
X38422619Y-50733094D01*
X37422619Y-49304523D02*
X37422619Y-49494999D01*
X37422619Y-49494999D02*
X37470238Y-49590237D01*
X37470238Y-49590237D02*
X37517857Y-49637856D01*
X37517857Y-49637856D02*
X37660714Y-49733094D01*
X37660714Y-49733094D02*
X37851190Y-49780713D01*
X37851190Y-49780713D02*
X38232142Y-49780713D01*
X38232142Y-49780713D02*
X38327380Y-49733094D01*
X38327380Y-49733094D02*
X38375000Y-49685475D01*
X38375000Y-49685475D02*
X38422619Y-49590237D01*
X38422619Y-49590237D02*
X38422619Y-49399761D01*
X38422619Y-49399761D02*
X38375000Y-49304523D01*
X38375000Y-49304523D02*
X38327380Y-49256904D01*
X38327380Y-49256904D02*
X38232142Y-49209285D01*
X38232142Y-49209285D02*
X37994047Y-49209285D01*
X37994047Y-49209285D02*
X37898809Y-49256904D01*
X37898809Y-49256904D02*
X37851190Y-49304523D01*
X37851190Y-49304523D02*
X37803571Y-49399761D01*
X37803571Y-49399761D02*
X37803571Y-49590237D01*
X37803571Y-49590237D02*
X37851190Y-49685475D01*
X37851190Y-49685475D02*
X37898809Y-49733094D01*
X37898809Y-49733094D02*
X37994047Y-49780713D01*
%TO.C,D9*%
X29966905Y-123722619D02*
X29966905Y-122722619D01*
X29966905Y-122722619D02*
X30205000Y-122722619D01*
X30205000Y-122722619D02*
X30347857Y-122770238D01*
X30347857Y-122770238D02*
X30443095Y-122865476D01*
X30443095Y-122865476D02*
X30490714Y-122960714D01*
X30490714Y-122960714D02*
X30538333Y-123151190D01*
X30538333Y-123151190D02*
X30538333Y-123294047D01*
X30538333Y-123294047D02*
X30490714Y-123484523D01*
X30490714Y-123484523D02*
X30443095Y-123579761D01*
X30443095Y-123579761D02*
X30347857Y-123675000D01*
X30347857Y-123675000D02*
X30205000Y-123722619D01*
X30205000Y-123722619D02*
X29966905Y-123722619D01*
X31014524Y-123722619D02*
X31205000Y-123722619D01*
X31205000Y-123722619D02*
X31300238Y-123675000D01*
X31300238Y-123675000D02*
X31347857Y-123627380D01*
X31347857Y-123627380D02*
X31443095Y-123484523D01*
X31443095Y-123484523D02*
X31490714Y-123294047D01*
X31490714Y-123294047D02*
X31490714Y-122913095D01*
X31490714Y-122913095D02*
X31443095Y-122817857D01*
X31443095Y-122817857D02*
X31395476Y-122770238D01*
X31395476Y-122770238D02*
X31300238Y-122722619D01*
X31300238Y-122722619D02*
X31109762Y-122722619D01*
X31109762Y-122722619D02*
X31014524Y-122770238D01*
X31014524Y-122770238D02*
X30966905Y-122817857D01*
X30966905Y-122817857D02*
X30919286Y-122913095D01*
X30919286Y-122913095D02*
X30919286Y-123151190D01*
X30919286Y-123151190D02*
X30966905Y-123246428D01*
X30966905Y-123246428D02*
X31014524Y-123294047D01*
X31014524Y-123294047D02*
X31109762Y-123341666D01*
X31109762Y-123341666D02*
X31300238Y-123341666D01*
X31300238Y-123341666D02*
X31395476Y-123294047D01*
X31395476Y-123294047D02*
X31443095Y-123246428D01*
X31443095Y-123246428D02*
X31490714Y-123151190D01*
X33636905Y-125906904D02*
X34113095Y-125906904D01*
X33541667Y-126192619D02*
X33875000Y-125192619D01*
X33875000Y-125192619D02*
X34208333Y-126192619D01*
%TO.C,R2*%
X59502619Y-43346666D02*
X59026428Y-43679999D01*
X59502619Y-43918094D02*
X58502619Y-43918094D01*
X58502619Y-43918094D02*
X58502619Y-43537142D01*
X58502619Y-43537142D02*
X58550238Y-43441904D01*
X58550238Y-43441904D02*
X58597857Y-43394285D01*
X58597857Y-43394285D02*
X58693095Y-43346666D01*
X58693095Y-43346666D02*
X58835952Y-43346666D01*
X58835952Y-43346666D02*
X58931190Y-43394285D01*
X58931190Y-43394285D02*
X58978809Y-43441904D01*
X58978809Y-43441904D02*
X59026428Y-43537142D01*
X59026428Y-43537142D02*
X59026428Y-43918094D01*
X58597857Y-42965713D02*
X58550238Y-42918094D01*
X58550238Y-42918094D02*
X58502619Y-42822856D01*
X58502619Y-42822856D02*
X58502619Y-42584761D01*
X58502619Y-42584761D02*
X58550238Y-42489523D01*
X58550238Y-42489523D02*
X58597857Y-42441904D01*
X58597857Y-42441904D02*
X58693095Y-42394285D01*
X58693095Y-42394285D02*
X58788333Y-42394285D01*
X58788333Y-42394285D02*
X58931190Y-42441904D01*
X58931190Y-42441904D02*
X59502619Y-43013332D01*
X59502619Y-43013332D02*
X59502619Y-42394285D01*
%TO.C,D14*%
X38380714Y-119912619D02*
X38380714Y-118912619D01*
X38380714Y-118912619D02*
X38618809Y-118912619D01*
X38618809Y-118912619D02*
X38761666Y-118960238D01*
X38761666Y-118960238D02*
X38856904Y-119055476D01*
X38856904Y-119055476D02*
X38904523Y-119150714D01*
X38904523Y-119150714D02*
X38952142Y-119341190D01*
X38952142Y-119341190D02*
X38952142Y-119484047D01*
X38952142Y-119484047D02*
X38904523Y-119674523D01*
X38904523Y-119674523D02*
X38856904Y-119769761D01*
X38856904Y-119769761D02*
X38761666Y-119865000D01*
X38761666Y-119865000D02*
X38618809Y-119912619D01*
X38618809Y-119912619D02*
X38380714Y-119912619D01*
X39904523Y-119912619D02*
X39333095Y-119912619D01*
X39618809Y-119912619D02*
X39618809Y-118912619D01*
X39618809Y-118912619D02*
X39523571Y-119055476D01*
X39523571Y-119055476D02*
X39428333Y-119150714D01*
X39428333Y-119150714D02*
X39333095Y-119198333D01*
X40761666Y-119245952D02*
X40761666Y-119912619D01*
X40523571Y-118865000D02*
X40285476Y-119579285D01*
X40285476Y-119579285D02*
X40904523Y-119579285D01*
X42526905Y-122096904D02*
X43003095Y-122096904D01*
X42431667Y-122382619D02*
X42765000Y-121382619D01*
X42765000Y-121382619D02*
X43098333Y-122382619D01*
%TO.C,D13*%
X29426923Y-119972715D02*
X29426923Y-118972715D01*
X29426923Y-118972715D02*
X29665018Y-118972715D01*
X29665018Y-118972715D02*
X29807875Y-119020334D01*
X29807875Y-119020334D02*
X29903113Y-119115572D01*
X29903113Y-119115572D02*
X29950732Y-119210810D01*
X29950732Y-119210810D02*
X29998351Y-119401286D01*
X29998351Y-119401286D02*
X29998351Y-119544143D01*
X29998351Y-119544143D02*
X29950732Y-119734619D01*
X29950732Y-119734619D02*
X29903113Y-119829857D01*
X29903113Y-119829857D02*
X29807875Y-119925096D01*
X29807875Y-119925096D02*
X29665018Y-119972715D01*
X29665018Y-119972715D02*
X29426923Y-119972715D01*
X30950732Y-119972715D02*
X30379304Y-119972715D01*
X30665018Y-119972715D02*
X30665018Y-118972715D01*
X30665018Y-118972715D02*
X30569780Y-119115572D01*
X30569780Y-119115572D02*
X30474542Y-119210810D01*
X30474542Y-119210810D02*
X30379304Y-119258429D01*
X31284066Y-118972715D02*
X31903113Y-118972715D01*
X31903113Y-118972715D02*
X31569780Y-119353667D01*
X31569780Y-119353667D02*
X31712637Y-119353667D01*
X31712637Y-119353667D02*
X31807875Y-119401286D01*
X31807875Y-119401286D02*
X31855494Y-119448905D01*
X31855494Y-119448905D02*
X31903113Y-119544143D01*
X31903113Y-119544143D02*
X31903113Y-119782238D01*
X31903113Y-119782238D02*
X31855494Y-119877476D01*
X31855494Y-119877476D02*
X31807875Y-119925096D01*
X31807875Y-119925096D02*
X31712637Y-119972715D01*
X31712637Y-119972715D02*
X31426923Y-119972715D01*
X31426923Y-119972715D02*
X31331685Y-119925096D01*
X31331685Y-119925096D02*
X31284066Y-119877476D01*
X33573114Y-122157000D02*
X34049304Y-122157000D01*
X33477876Y-122442715D02*
X33811209Y-121442715D01*
X33811209Y-121442715D02*
X34144542Y-122442715D01*
%TO.C,D1*%
X63422619Y-50733094D02*
X62422619Y-50733094D01*
X62422619Y-50733094D02*
X62422619Y-50494999D01*
X62422619Y-50494999D02*
X62470238Y-50352142D01*
X62470238Y-50352142D02*
X62565476Y-50256904D01*
X62565476Y-50256904D02*
X62660714Y-50209285D01*
X62660714Y-50209285D02*
X62851190Y-50161666D01*
X62851190Y-50161666D02*
X62994047Y-50161666D01*
X62994047Y-50161666D02*
X63184523Y-50209285D01*
X63184523Y-50209285D02*
X63279761Y-50256904D01*
X63279761Y-50256904D02*
X63375000Y-50352142D01*
X63375000Y-50352142D02*
X63422619Y-50494999D01*
X63422619Y-50494999D02*
X63422619Y-50733094D01*
X63422619Y-49209285D02*
X63422619Y-49780713D01*
X63422619Y-49494999D02*
X62422619Y-49494999D01*
X62422619Y-49494999D02*
X62565476Y-49590237D01*
X62565476Y-49590237D02*
X62660714Y-49685475D01*
X62660714Y-49685475D02*
X62708333Y-49780713D01*
%TO.C,R6*%
X39182619Y-43346666D02*
X38706428Y-43679999D01*
X39182619Y-43918094D02*
X38182619Y-43918094D01*
X38182619Y-43918094D02*
X38182619Y-43537142D01*
X38182619Y-43537142D02*
X38230238Y-43441904D01*
X38230238Y-43441904D02*
X38277857Y-43394285D01*
X38277857Y-43394285D02*
X38373095Y-43346666D01*
X38373095Y-43346666D02*
X38515952Y-43346666D01*
X38515952Y-43346666D02*
X38611190Y-43394285D01*
X38611190Y-43394285D02*
X38658809Y-43441904D01*
X38658809Y-43441904D02*
X38706428Y-43537142D01*
X38706428Y-43537142D02*
X38706428Y-43918094D01*
X38182619Y-42489523D02*
X38182619Y-42679999D01*
X38182619Y-42679999D02*
X38230238Y-42775237D01*
X38230238Y-42775237D02*
X38277857Y-42822856D01*
X38277857Y-42822856D02*
X38420714Y-42918094D01*
X38420714Y-42918094D02*
X38611190Y-42965713D01*
X38611190Y-42965713D02*
X38992142Y-42965713D01*
X38992142Y-42965713D02*
X39087380Y-42918094D01*
X39087380Y-42918094D02*
X39135000Y-42870475D01*
X39135000Y-42870475D02*
X39182619Y-42775237D01*
X39182619Y-42775237D02*
X39182619Y-42584761D01*
X39182619Y-42584761D02*
X39135000Y-42489523D01*
X39135000Y-42489523D02*
X39087380Y-42441904D01*
X39087380Y-42441904D02*
X38992142Y-42394285D01*
X38992142Y-42394285D02*
X38754047Y-42394285D01*
X38754047Y-42394285D02*
X38658809Y-42441904D01*
X38658809Y-42441904D02*
X38611190Y-42489523D01*
X38611190Y-42489523D02*
X38563571Y-42584761D01*
X38563571Y-42584761D02*
X38563571Y-42775237D01*
X38563571Y-42775237D02*
X38611190Y-42870475D01*
X38611190Y-42870475D02*
X38658809Y-42918094D01*
X38658809Y-42918094D02*
X38754047Y-42965713D01*
%TO.C,U1*%
X27178095Y-114547619D02*
X27178095Y-115357142D01*
X27178095Y-115357142D02*
X27225714Y-115452380D01*
X27225714Y-115452380D02*
X27273333Y-115500000D01*
X27273333Y-115500000D02*
X27368571Y-115547619D01*
X27368571Y-115547619D02*
X27559047Y-115547619D01*
X27559047Y-115547619D02*
X27654285Y-115500000D01*
X27654285Y-115500000D02*
X27701904Y-115452380D01*
X27701904Y-115452380D02*
X27749523Y-115357142D01*
X27749523Y-115357142D02*
X27749523Y-114547619D01*
X28749523Y-115547619D02*
X28178095Y-115547619D01*
X28463809Y-115547619D02*
X28463809Y-114547619D01*
X28463809Y-114547619D02*
X28368571Y-114690476D01*
X28368571Y-114690476D02*
X28273333Y-114785714D01*
X28273333Y-114785714D02*
X28178095Y-114833333D01*
%TO.C,SW2*%
X45290000Y-104838332D02*
X45337619Y-104695475D01*
X45337619Y-104695475D02*
X45337619Y-104457380D01*
X45337619Y-104457380D02*
X45290000Y-104362142D01*
X45290000Y-104362142D02*
X45242380Y-104314523D01*
X45242380Y-104314523D02*
X45147142Y-104266904D01*
X45147142Y-104266904D02*
X45051904Y-104266904D01*
X45051904Y-104266904D02*
X44956666Y-104314523D01*
X44956666Y-104314523D02*
X44909047Y-104362142D01*
X44909047Y-104362142D02*
X44861428Y-104457380D01*
X44861428Y-104457380D02*
X44813809Y-104647856D01*
X44813809Y-104647856D02*
X44766190Y-104743094D01*
X44766190Y-104743094D02*
X44718571Y-104790713D01*
X44718571Y-104790713D02*
X44623333Y-104838332D01*
X44623333Y-104838332D02*
X44528095Y-104838332D01*
X44528095Y-104838332D02*
X44432857Y-104790713D01*
X44432857Y-104790713D02*
X44385238Y-104743094D01*
X44385238Y-104743094D02*
X44337619Y-104647856D01*
X44337619Y-104647856D02*
X44337619Y-104409761D01*
X44337619Y-104409761D02*
X44385238Y-104266904D01*
X44337619Y-103933570D02*
X45337619Y-103695475D01*
X45337619Y-103695475D02*
X44623333Y-103504999D01*
X44623333Y-103504999D02*
X45337619Y-103314523D01*
X45337619Y-103314523D02*
X44337619Y-103076428D01*
X44432857Y-102743094D02*
X44385238Y-102695475D01*
X44385238Y-102695475D02*
X44337619Y-102600237D01*
X44337619Y-102600237D02*
X44337619Y-102362142D01*
X44337619Y-102362142D02*
X44385238Y-102266904D01*
X44385238Y-102266904D02*
X44432857Y-102219285D01*
X44432857Y-102219285D02*
X44528095Y-102171666D01*
X44528095Y-102171666D02*
X44623333Y-102171666D01*
X44623333Y-102171666D02*
X44766190Y-102219285D01*
X44766190Y-102219285D02*
X45337619Y-102790713D01*
X45337619Y-102790713D02*
X45337619Y-102171666D01*
%TO.C,C13*%
X48667380Y-104127857D02*
X48715000Y-104175476D01*
X48715000Y-104175476D02*
X48762619Y-104318333D01*
X48762619Y-104318333D02*
X48762619Y-104413571D01*
X48762619Y-104413571D02*
X48715000Y-104556428D01*
X48715000Y-104556428D02*
X48619761Y-104651666D01*
X48619761Y-104651666D02*
X48524523Y-104699285D01*
X48524523Y-104699285D02*
X48334047Y-104746904D01*
X48334047Y-104746904D02*
X48191190Y-104746904D01*
X48191190Y-104746904D02*
X48000714Y-104699285D01*
X48000714Y-104699285D02*
X47905476Y-104651666D01*
X47905476Y-104651666D02*
X47810238Y-104556428D01*
X47810238Y-104556428D02*
X47762619Y-104413571D01*
X47762619Y-104413571D02*
X47762619Y-104318333D01*
X47762619Y-104318333D02*
X47810238Y-104175476D01*
X47810238Y-104175476D02*
X47857857Y-104127857D01*
X48762619Y-103175476D02*
X48762619Y-103746904D01*
X48762619Y-103461190D02*
X47762619Y-103461190D01*
X47762619Y-103461190D02*
X47905476Y-103556428D01*
X47905476Y-103556428D02*
X48000714Y-103651666D01*
X48000714Y-103651666D02*
X48048333Y-103746904D01*
X47762619Y-102842142D02*
X47762619Y-102223095D01*
X47762619Y-102223095D02*
X48143571Y-102556428D01*
X48143571Y-102556428D02*
X48143571Y-102413571D01*
X48143571Y-102413571D02*
X48191190Y-102318333D01*
X48191190Y-102318333D02*
X48238809Y-102270714D01*
X48238809Y-102270714D02*
X48334047Y-102223095D01*
X48334047Y-102223095D02*
X48572142Y-102223095D01*
X48572142Y-102223095D02*
X48667380Y-102270714D01*
X48667380Y-102270714D02*
X48715000Y-102318333D01*
X48715000Y-102318333D02*
X48762619Y-102413571D01*
X48762619Y-102413571D02*
X48762619Y-102699285D01*
X48762619Y-102699285D02*
X48715000Y-102794523D01*
X48715000Y-102794523D02*
X48667380Y-102842142D01*
%TO.C,C10*%
X61587142Y-77877380D02*
X61539523Y-77925000D01*
X61539523Y-77925000D02*
X61396666Y-77972619D01*
X61396666Y-77972619D02*
X61301428Y-77972619D01*
X61301428Y-77972619D02*
X61158571Y-77925000D01*
X61158571Y-77925000D02*
X61063333Y-77829761D01*
X61063333Y-77829761D02*
X61015714Y-77734523D01*
X61015714Y-77734523D02*
X60968095Y-77544047D01*
X60968095Y-77544047D02*
X60968095Y-77401190D01*
X60968095Y-77401190D02*
X61015714Y-77210714D01*
X61015714Y-77210714D02*
X61063333Y-77115476D01*
X61063333Y-77115476D02*
X61158571Y-77020238D01*
X61158571Y-77020238D02*
X61301428Y-76972619D01*
X61301428Y-76972619D02*
X61396666Y-76972619D01*
X61396666Y-76972619D02*
X61539523Y-77020238D01*
X61539523Y-77020238D02*
X61587142Y-77067857D01*
X62539523Y-77972619D02*
X61968095Y-77972619D01*
X62253809Y-77972619D02*
X62253809Y-76972619D01*
X62253809Y-76972619D02*
X62158571Y-77115476D01*
X62158571Y-77115476D02*
X62063333Y-77210714D01*
X62063333Y-77210714D02*
X61968095Y-77258333D01*
X63158571Y-76972619D02*
X63253809Y-76972619D01*
X63253809Y-76972619D02*
X63349047Y-77020238D01*
X63349047Y-77020238D02*
X63396666Y-77067857D01*
X63396666Y-77067857D02*
X63444285Y-77163095D01*
X63444285Y-77163095D02*
X63491904Y-77353571D01*
X63491904Y-77353571D02*
X63491904Y-77591666D01*
X63491904Y-77591666D02*
X63444285Y-77782142D01*
X63444285Y-77782142D02*
X63396666Y-77877380D01*
X63396666Y-77877380D02*
X63349047Y-77925000D01*
X63349047Y-77925000D02*
X63253809Y-77972619D01*
X63253809Y-77972619D02*
X63158571Y-77972619D01*
X63158571Y-77972619D02*
X63063333Y-77925000D01*
X63063333Y-77925000D02*
X63015714Y-77877380D01*
X63015714Y-77877380D02*
X62968095Y-77782142D01*
X62968095Y-77782142D02*
X62920476Y-77591666D01*
X62920476Y-77591666D02*
X62920476Y-77353571D01*
X62920476Y-77353571D02*
X62968095Y-77163095D01*
X62968095Y-77163095D02*
X63015714Y-77067857D01*
X63015714Y-77067857D02*
X63063333Y-77020238D01*
X63063333Y-77020238D02*
X63158571Y-76972619D01*
%TO.C,C7*%
X33427380Y-80831666D02*
X33475000Y-80879285D01*
X33475000Y-80879285D02*
X33522619Y-81022142D01*
X33522619Y-81022142D02*
X33522619Y-81117380D01*
X33522619Y-81117380D02*
X33475000Y-81260237D01*
X33475000Y-81260237D02*
X33379761Y-81355475D01*
X33379761Y-81355475D02*
X33284523Y-81403094D01*
X33284523Y-81403094D02*
X33094047Y-81450713D01*
X33094047Y-81450713D02*
X32951190Y-81450713D01*
X32951190Y-81450713D02*
X32760714Y-81403094D01*
X32760714Y-81403094D02*
X32665476Y-81355475D01*
X32665476Y-81355475D02*
X32570238Y-81260237D01*
X32570238Y-81260237D02*
X32522619Y-81117380D01*
X32522619Y-81117380D02*
X32522619Y-81022142D01*
X32522619Y-81022142D02*
X32570238Y-80879285D01*
X32570238Y-80879285D02*
X32617857Y-80831666D01*
X32522619Y-80498332D02*
X32522619Y-79831666D01*
X32522619Y-79831666D02*
X33522619Y-80260237D01*
%TO.C,R4*%
X49342619Y-43346666D02*
X48866428Y-43679999D01*
X49342619Y-43918094D02*
X48342619Y-43918094D01*
X48342619Y-43918094D02*
X48342619Y-43537142D01*
X48342619Y-43537142D02*
X48390238Y-43441904D01*
X48390238Y-43441904D02*
X48437857Y-43394285D01*
X48437857Y-43394285D02*
X48533095Y-43346666D01*
X48533095Y-43346666D02*
X48675952Y-43346666D01*
X48675952Y-43346666D02*
X48771190Y-43394285D01*
X48771190Y-43394285D02*
X48818809Y-43441904D01*
X48818809Y-43441904D02*
X48866428Y-43537142D01*
X48866428Y-43537142D02*
X48866428Y-43918094D01*
X48675952Y-42489523D02*
X49342619Y-42489523D01*
X48295000Y-42727618D02*
X49009285Y-42965713D01*
X49009285Y-42965713D02*
X49009285Y-42346666D01*
%TO.C,U4*%
X35433095Y-82187619D02*
X35433095Y-82997142D01*
X35433095Y-82997142D02*
X35480714Y-83092380D01*
X35480714Y-83092380D02*
X35528333Y-83140000D01*
X35528333Y-83140000D02*
X35623571Y-83187619D01*
X35623571Y-83187619D02*
X35814047Y-83187619D01*
X35814047Y-83187619D02*
X35909285Y-83140000D01*
X35909285Y-83140000D02*
X35956904Y-83092380D01*
X35956904Y-83092380D02*
X36004523Y-82997142D01*
X36004523Y-82997142D02*
X36004523Y-82187619D01*
X36909285Y-82520952D02*
X36909285Y-83187619D01*
X36671190Y-82140000D02*
X36433095Y-82854285D01*
X36433095Y-82854285D02*
X37052142Y-82854285D01*
%TO.C,D16*%
X54440714Y-128027619D02*
X54440714Y-127027619D01*
X54440714Y-127027619D02*
X54678809Y-127027619D01*
X54678809Y-127027619D02*
X54821666Y-127075238D01*
X54821666Y-127075238D02*
X54916904Y-127170476D01*
X54916904Y-127170476D02*
X54964523Y-127265714D01*
X54964523Y-127265714D02*
X55012142Y-127456190D01*
X55012142Y-127456190D02*
X55012142Y-127599047D01*
X55012142Y-127599047D02*
X54964523Y-127789523D01*
X54964523Y-127789523D02*
X54916904Y-127884761D01*
X54916904Y-127884761D02*
X54821666Y-127980000D01*
X54821666Y-127980000D02*
X54678809Y-128027619D01*
X54678809Y-128027619D02*
X54440714Y-128027619D01*
X55964523Y-128027619D02*
X55393095Y-128027619D01*
X55678809Y-128027619D02*
X55678809Y-127027619D01*
X55678809Y-127027619D02*
X55583571Y-127170476D01*
X55583571Y-127170476D02*
X55488333Y-127265714D01*
X55488333Y-127265714D02*
X55393095Y-127313333D01*
X56821666Y-127027619D02*
X56631190Y-127027619D01*
X56631190Y-127027619D02*
X56535952Y-127075238D01*
X56535952Y-127075238D02*
X56488333Y-127122857D01*
X56488333Y-127122857D02*
X56393095Y-127265714D01*
X56393095Y-127265714D02*
X56345476Y-127456190D01*
X56345476Y-127456190D02*
X56345476Y-127837142D01*
X56345476Y-127837142D02*
X56393095Y-127932380D01*
X56393095Y-127932380D02*
X56440714Y-127980000D01*
X56440714Y-127980000D02*
X56535952Y-128027619D01*
X56535952Y-128027619D02*
X56726428Y-128027619D01*
X56726428Y-128027619D02*
X56821666Y-127980000D01*
X56821666Y-127980000D02*
X56869285Y-127932380D01*
X56869285Y-127932380D02*
X56916904Y-127837142D01*
X56916904Y-127837142D02*
X56916904Y-127599047D01*
X56916904Y-127599047D02*
X56869285Y-127503809D01*
X56869285Y-127503809D02*
X56821666Y-127456190D01*
X56821666Y-127456190D02*
X56726428Y-127408571D01*
X56726428Y-127408571D02*
X56535952Y-127408571D01*
X56535952Y-127408571D02*
X56440714Y-127456190D01*
X56440714Y-127456190D02*
X56393095Y-127503809D01*
X56393095Y-127503809D02*
X56345476Y-127599047D01*
X52246905Y-125271904D02*
X52723095Y-125271904D01*
X52151667Y-125557619D02*
X52485000Y-124557619D01*
X52485000Y-124557619D02*
X52818333Y-125557619D01*
%TO.C,D3*%
X53422619Y-50733094D02*
X52422619Y-50733094D01*
X52422619Y-50733094D02*
X52422619Y-50494999D01*
X52422619Y-50494999D02*
X52470238Y-50352142D01*
X52470238Y-50352142D02*
X52565476Y-50256904D01*
X52565476Y-50256904D02*
X52660714Y-50209285D01*
X52660714Y-50209285D02*
X52851190Y-50161666D01*
X52851190Y-50161666D02*
X52994047Y-50161666D01*
X52994047Y-50161666D02*
X53184523Y-50209285D01*
X53184523Y-50209285D02*
X53279761Y-50256904D01*
X53279761Y-50256904D02*
X53375000Y-50352142D01*
X53375000Y-50352142D02*
X53422619Y-50494999D01*
X53422619Y-50494999D02*
X53422619Y-50733094D01*
X52422619Y-49828332D02*
X52422619Y-49209285D01*
X52422619Y-49209285D02*
X52803571Y-49542618D01*
X52803571Y-49542618D02*
X52803571Y-49399761D01*
X52803571Y-49399761D02*
X52851190Y-49304523D01*
X52851190Y-49304523D02*
X52898809Y-49256904D01*
X52898809Y-49256904D02*
X52994047Y-49209285D01*
X52994047Y-49209285D02*
X53232142Y-49209285D01*
X53232142Y-49209285D02*
X53327380Y-49256904D01*
X53327380Y-49256904D02*
X53375000Y-49304523D01*
X53375000Y-49304523D02*
X53422619Y-49399761D01*
X53422619Y-49399761D02*
X53422619Y-49685475D01*
X53422619Y-49685475D02*
X53375000Y-49780713D01*
X53375000Y-49780713D02*
X53327380Y-49828332D01*
%TO.C,R3*%
X54422619Y-43346666D02*
X53946428Y-43679999D01*
X54422619Y-43918094D02*
X53422619Y-43918094D01*
X53422619Y-43918094D02*
X53422619Y-43537142D01*
X53422619Y-43537142D02*
X53470238Y-43441904D01*
X53470238Y-43441904D02*
X53517857Y-43394285D01*
X53517857Y-43394285D02*
X53613095Y-43346666D01*
X53613095Y-43346666D02*
X53755952Y-43346666D01*
X53755952Y-43346666D02*
X53851190Y-43394285D01*
X53851190Y-43394285D02*
X53898809Y-43441904D01*
X53898809Y-43441904D02*
X53946428Y-43537142D01*
X53946428Y-43537142D02*
X53946428Y-43918094D01*
X53422619Y-43013332D02*
X53422619Y-42394285D01*
X53422619Y-42394285D02*
X53803571Y-42727618D01*
X53803571Y-42727618D02*
X53803571Y-42584761D01*
X53803571Y-42584761D02*
X53851190Y-42489523D01*
X53851190Y-42489523D02*
X53898809Y-42441904D01*
X53898809Y-42441904D02*
X53994047Y-42394285D01*
X53994047Y-42394285D02*
X54232142Y-42394285D01*
X54232142Y-42394285D02*
X54327380Y-42441904D01*
X54327380Y-42441904D02*
X54375000Y-42489523D01*
X54375000Y-42489523D02*
X54422619Y-42584761D01*
X54422619Y-42584761D02*
X54422619Y-42870475D01*
X54422619Y-42870475D02*
X54375000Y-42965713D01*
X54375000Y-42965713D02*
X54327380Y-43013332D01*
%TO.C,R15*%
X52697142Y-102077619D02*
X52363809Y-101601428D01*
X52125714Y-102077619D02*
X52125714Y-101077619D01*
X52125714Y-101077619D02*
X52506666Y-101077619D01*
X52506666Y-101077619D02*
X52601904Y-101125238D01*
X52601904Y-101125238D02*
X52649523Y-101172857D01*
X52649523Y-101172857D02*
X52697142Y-101268095D01*
X52697142Y-101268095D02*
X52697142Y-101410952D01*
X52697142Y-101410952D02*
X52649523Y-101506190D01*
X52649523Y-101506190D02*
X52601904Y-101553809D01*
X52601904Y-101553809D02*
X52506666Y-101601428D01*
X52506666Y-101601428D02*
X52125714Y-101601428D01*
X53649523Y-102077619D02*
X53078095Y-102077619D01*
X53363809Y-102077619D02*
X53363809Y-101077619D01*
X53363809Y-101077619D02*
X53268571Y-101220476D01*
X53268571Y-101220476D02*
X53173333Y-101315714D01*
X53173333Y-101315714D02*
X53078095Y-101363333D01*
X54554285Y-101077619D02*
X54078095Y-101077619D01*
X54078095Y-101077619D02*
X54030476Y-101553809D01*
X54030476Y-101553809D02*
X54078095Y-101506190D01*
X54078095Y-101506190D02*
X54173333Y-101458571D01*
X54173333Y-101458571D02*
X54411428Y-101458571D01*
X54411428Y-101458571D02*
X54506666Y-101506190D01*
X54506666Y-101506190D02*
X54554285Y-101553809D01*
X54554285Y-101553809D02*
X54601904Y-101649047D01*
X54601904Y-101649047D02*
X54601904Y-101887142D01*
X54601904Y-101887142D02*
X54554285Y-101982380D01*
X54554285Y-101982380D02*
X54506666Y-102030000D01*
X54506666Y-102030000D02*
X54411428Y-102077619D01*
X54411428Y-102077619D02*
X54173333Y-102077619D01*
X54173333Y-102077619D02*
X54078095Y-102030000D01*
X54078095Y-102030000D02*
X54030476Y-101982380D01*
%TO.C,D4*%
X48422619Y-50733094D02*
X47422619Y-50733094D01*
X47422619Y-50733094D02*
X47422619Y-50494999D01*
X47422619Y-50494999D02*
X47470238Y-50352142D01*
X47470238Y-50352142D02*
X47565476Y-50256904D01*
X47565476Y-50256904D02*
X47660714Y-50209285D01*
X47660714Y-50209285D02*
X47851190Y-50161666D01*
X47851190Y-50161666D02*
X47994047Y-50161666D01*
X47994047Y-50161666D02*
X48184523Y-50209285D01*
X48184523Y-50209285D02*
X48279761Y-50256904D01*
X48279761Y-50256904D02*
X48375000Y-50352142D01*
X48375000Y-50352142D02*
X48422619Y-50494999D01*
X48422619Y-50494999D02*
X48422619Y-50733094D01*
X47755952Y-49304523D02*
X48422619Y-49304523D01*
X47375000Y-49542618D02*
X48089285Y-49780713D01*
X48089285Y-49780713D02*
X48089285Y-49161666D01*
%TO.C,D12*%
X54327777Y-124254270D02*
X54327777Y-123254270D01*
X54327777Y-123254270D02*
X54565872Y-123254270D01*
X54565872Y-123254270D02*
X54708729Y-123301889D01*
X54708729Y-123301889D02*
X54803967Y-123397127D01*
X54803967Y-123397127D02*
X54851586Y-123492365D01*
X54851586Y-123492365D02*
X54899205Y-123682841D01*
X54899205Y-123682841D02*
X54899205Y-123825698D01*
X54899205Y-123825698D02*
X54851586Y-124016174D01*
X54851586Y-124016174D02*
X54803967Y-124111412D01*
X54803967Y-124111412D02*
X54708729Y-124206651D01*
X54708729Y-124206651D02*
X54565872Y-124254270D01*
X54565872Y-124254270D02*
X54327777Y-124254270D01*
X55851586Y-124254270D02*
X55280158Y-124254270D01*
X55565872Y-124254270D02*
X55565872Y-123254270D01*
X55565872Y-123254270D02*
X55470634Y-123397127D01*
X55470634Y-123397127D02*
X55375396Y-123492365D01*
X55375396Y-123492365D02*
X55280158Y-123539984D01*
X56232539Y-123349508D02*
X56280158Y-123301889D01*
X56280158Y-123301889D02*
X56375396Y-123254270D01*
X56375396Y-123254270D02*
X56613491Y-123254270D01*
X56613491Y-123254270D02*
X56708729Y-123301889D01*
X56708729Y-123301889D02*
X56756348Y-123349508D01*
X56756348Y-123349508D02*
X56803967Y-123444746D01*
X56803967Y-123444746D02*
X56803967Y-123539984D01*
X56803967Y-123539984D02*
X56756348Y-123682841D01*
X56756348Y-123682841D02*
X56184920Y-124254270D01*
X56184920Y-124254270D02*
X56803967Y-124254270D01*
X52133968Y-121498555D02*
X52610158Y-121498555D01*
X52038730Y-121784270D02*
X52372063Y-120784270D01*
X52372063Y-120784270D02*
X52705396Y-121784270D01*
%TO.C,C11*%
X50492380Y-104147857D02*
X50540000Y-104195476D01*
X50540000Y-104195476D02*
X50587619Y-104338333D01*
X50587619Y-104338333D02*
X50587619Y-104433571D01*
X50587619Y-104433571D02*
X50540000Y-104576428D01*
X50540000Y-104576428D02*
X50444761Y-104671666D01*
X50444761Y-104671666D02*
X50349523Y-104719285D01*
X50349523Y-104719285D02*
X50159047Y-104766904D01*
X50159047Y-104766904D02*
X50016190Y-104766904D01*
X50016190Y-104766904D02*
X49825714Y-104719285D01*
X49825714Y-104719285D02*
X49730476Y-104671666D01*
X49730476Y-104671666D02*
X49635238Y-104576428D01*
X49635238Y-104576428D02*
X49587619Y-104433571D01*
X49587619Y-104433571D02*
X49587619Y-104338333D01*
X49587619Y-104338333D02*
X49635238Y-104195476D01*
X49635238Y-104195476D02*
X49682857Y-104147857D01*
X50587619Y-103195476D02*
X50587619Y-103766904D01*
X50587619Y-103481190D02*
X49587619Y-103481190D01*
X49587619Y-103481190D02*
X49730476Y-103576428D01*
X49730476Y-103576428D02*
X49825714Y-103671666D01*
X49825714Y-103671666D02*
X49873333Y-103766904D01*
X50587619Y-102243095D02*
X50587619Y-102814523D01*
X50587619Y-102528809D02*
X49587619Y-102528809D01*
X49587619Y-102528809D02*
X49730476Y-102624047D01*
X49730476Y-102624047D02*
X49825714Y-102719285D01*
X49825714Y-102719285D02*
X49873333Y-102814523D01*
%TO.C,C2*%
X36602380Y-80811666D02*
X36650000Y-80859285D01*
X36650000Y-80859285D02*
X36697619Y-81002142D01*
X36697619Y-81002142D02*
X36697619Y-81097380D01*
X36697619Y-81097380D02*
X36650000Y-81240237D01*
X36650000Y-81240237D02*
X36554761Y-81335475D01*
X36554761Y-81335475D02*
X36459523Y-81383094D01*
X36459523Y-81383094D02*
X36269047Y-81430713D01*
X36269047Y-81430713D02*
X36126190Y-81430713D01*
X36126190Y-81430713D02*
X35935714Y-81383094D01*
X35935714Y-81383094D02*
X35840476Y-81335475D01*
X35840476Y-81335475D02*
X35745238Y-81240237D01*
X35745238Y-81240237D02*
X35697619Y-81097380D01*
X35697619Y-81097380D02*
X35697619Y-81002142D01*
X35697619Y-81002142D02*
X35745238Y-80859285D01*
X35745238Y-80859285D02*
X35792857Y-80811666D01*
X35792857Y-80430713D02*
X35745238Y-80383094D01*
X35745238Y-80383094D02*
X35697619Y-80287856D01*
X35697619Y-80287856D02*
X35697619Y-80049761D01*
X35697619Y-80049761D02*
X35745238Y-79954523D01*
X35745238Y-79954523D02*
X35792857Y-79906904D01*
X35792857Y-79906904D02*
X35888095Y-79859285D01*
X35888095Y-79859285D02*
X35983333Y-79859285D01*
X35983333Y-79859285D02*
X36126190Y-79906904D01*
X36126190Y-79906904D02*
X36697619Y-80478332D01*
X36697619Y-80478332D02*
X36697619Y-79859285D01*
%TO.C,C8*%
X46047380Y-59221666D02*
X46095000Y-59269285D01*
X46095000Y-59269285D02*
X46142619Y-59412142D01*
X46142619Y-59412142D02*
X46142619Y-59507380D01*
X46142619Y-59507380D02*
X46095000Y-59650237D01*
X46095000Y-59650237D02*
X45999761Y-59745475D01*
X45999761Y-59745475D02*
X45904523Y-59793094D01*
X45904523Y-59793094D02*
X45714047Y-59840713D01*
X45714047Y-59840713D02*
X45571190Y-59840713D01*
X45571190Y-59840713D02*
X45380714Y-59793094D01*
X45380714Y-59793094D02*
X45285476Y-59745475D01*
X45285476Y-59745475D02*
X45190238Y-59650237D01*
X45190238Y-59650237D02*
X45142619Y-59507380D01*
X45142619Y-59507380D02*
X45142619Y-59412142D01*
X45142619Y-59412142D02*
X45190238Y-59269285D01*
X45190238Y-59269285D02*
X45237857Y-59221666D01*
X45571190Y-58650237D02*
X45523571Y-58745475D01*
X45523571Y-58745475D02*
X45475952Y-58793094D01*
X45475952Y-58793094D02*
X45380714Y-58840713D01*
X45380714Y-58840713D02*
X45333095Y-58840713D01*
X45333095Y-58840713D02*
X45237857Y-58793094D01*
X45237857Y-58793094D02*
X45190238Y-58745475D01*
X45190238Y-58745475D02*
X45142619Y-58650237D01*
X45142619Y-58650237D02*
X45142619Y-58459761D01*
X45142619Y-58459761D02*
X45190238Y-58364523D01*
X45190238Y-58364523D02*
X45237857Y-58316904D01*
X45237857Y-58316904D02*
X45333095Y-58269285D01*
X45333095Y-58269285D02*
X45380714Y-58269285D01*
X45380714Y-58269285D02*
X45475952Y-58316904D01*
X45475952Y-58316904D02*
X45523571Y-58364523D01*
X45523571Y-58364523D02*
X45571190Y-58459761D01*
X45571190Y-58459761D02*
X45571190Y-58650237D01*
X45571190Y-58650237D02*
X45618809Y-58745475D01*
X45618809Y-58745475D02*
X45666428Y-58793094D01*
X45666428Y-58793094D02*
X45761666Y-58840713D01*
X45761666Y-58840713D02*
X45952142Y-58840713D01*
X45952142Y-58840713D02*
X46047380Y-58793094D01*
X46047380Y-58793094D02*
X46095000Y-58745475D01*
X46095000Y-58745475D02*
X46142619Y-58650237D01*
X46142619Y-58650237D02*
X46142619Y-58459761D01*
X46142619Y-58459761D02*
X46095000Y-58364523D01*
X46095000Y-58364523D02*
X46047380Y-58316904D01*
X46047380Y-58316904D02*
X45952142Y-58269285D01*
X45952142Y-58269285D02*
X45761666Y-58269285D01*
X45761666Y-58269285D02*
X45666428Y-58316904D01*
X45666428Y-58316904D02*
X45618809Y-58364523D01*
X45618809Y-58364523D02*
X45571190Y-58459761D01*
%TO.C,R7*%
X34102619Y-43346666D02*
X33626428Y-43679999D01*
X34102619Y-43918094D02*
X33102619Y-43918094D01*
X33102619Y-43918094D02*
X33102619Y-43537142D01*
X33102619Y-43537142D02*
X33150238Y-43441904D01*
X33150238Y-43441904D02*
X33197857Y-43394285D01*
X33197857Y-43394285D02*
X33293095Y-43346666D01*
X33293095Y-43346666D02*
X33435952Y-43346666D01*
X33435952Y-43346666D02*
X33531190Y-43394285D01*
X33531190Y-43394285D02*
X33578809Y-43441904D01*
X33578809Y-43441904D02*
X33626428Y-43537142D01*
X33626428Y-43537142D02*
X33626428Y-43918094D01*
X33102619Y-43013332D02*
X33102619Y-42346666D01*
X33102619Y-42346666D02*
X34102619Y-42775237D01*
%TO.C,C4*%
X44918333Y-133757380D02*
X44870714Y-133805000D01*
X44870714Y-133805000D02*
X44727857Y-133852619D01*
X44727857Y-133852619D02*
X44632619Y-133852619D01*
X44632619Y-133852619D02*
X44489762Y-133805000D01*
X44489762Y-133805000D02*
X44394524Y-133709761D01*
X44394524Y-133709761D02*
X44346905Y-133614523D01*
X44346905Y-133614523D02*
X44299286Y-133424047D01*
X44299286Y-133424047D02*
X44299286Y-133281190D01*
X44299286Y-133281190D02*
X44346905Y-133090714D01*
X44346905Y-133090714D02*
X44394524Y-132995476D01*
X44394524Y-132995476D02*
X44489762Y-132900238D01*
X44489762Y-132900238D02*
X44632619Y-132852619D01*
X44632619Y-132852619D02*
X44727857Y-132852619D01*
X44727857Y-132852619D02*
X44870714Y-132900238D01*
X44870714Y-132900238D02*
X44918333Y-132947857D01*
X45775476Y-133185952D02*
X45775476Y-133852619D01*
X45537381Y-132805000D02*
X45299286Y-133519285D01*
X45299286Y-133519285D02*
X45918333Y-133519285D01*
%TO.C,D8*%
X68422619Y-50733094D02*
X67422619Y-50733094D01*
X67422619Y-50733094D02*
X67422619Y-50494999D01*
X67422619Y-50494999D02*
X67470238Y-50352142D01*
X67470238Y-50352142D02*
X67565476Y-50256904D01*
X67565476Y-50256904D02*
X67660714Y-50209285D01*
X67660714Y-50209285D02*
X67851190Y-50161666D01*
X67851190Y-50161666D02*
X67994047Y-50161666D01*
X67994047Y-50161666D02*
X68184523Y-50209285D01*
X68184523Y-50209285D02*
X68279761Y-50256904D01*
X68279761Y-50256904D02*
X68375000Y-50352142D01*
X68375000Y-50352142D02*
X68422619Y-50494999D01*
X68422619Y-50494999D02*
X68422619Y-50733094D01*
X67851190Y-49590237D02*
X67803571Y-49685475D01*
X67803571Y-49685475D02*
X67755952Y-49733094D01*
X67755952Y-49733094D02*
X67660714Y-49780713D01*
X67660714Y-49780713D02*
X67613095Y-49780713D01*
X67613095Y-49780713D02*
X67517857Y-49733094D01*
X67517857Y-49733094D02*
X67470238Y-49685475D01*
X67470238Y-49685475D02*
X67422619Y-49590237D01*
X67422619Y-49590237D02*
X67422619Y-49399761D01*
X67422619Y-49399761D02*
X67470238Y-49304523D01*
X67470238Y-49304523D02*
X67517857Y-49256904D01*
X67517857Y-49256904D02*
X67613095Y-49209285D01*
X67613095Y-49209285D02*
X67660714Y-49209285D01*
X67660714Y-49209285D02*
X67755952Y-49256904D01*
X67755952Y-49256904D02*
X67803571Y-49304523D01*
X67803571Y-49304523D02*
X67851190Y-49399761D01*
X67851190Y-49399761D02*
X67851190Y-49590237D01*
X67851190Y-49590237D02*
X67898809Y-49685475D01*
X67898809Y-49685475D02*
X67946428Y-49733094D01*
X67946428Y-49733094D02*
X68041666Y-49780713D01*
X68041666Y-49780713D02*
X68232142Y-49780713D01*
X68232142Y-49780713D02*
X68327380Y-49733094D01*
X68327380Y-49733094D02*
X68375000Y-49685475D01*
X68375000Y-49685475D02*
X68422619Y-49590237D01*
X68422619Y-49590237D02*
X68422619Y-49399761D01*
X68422619Y-49399761D02*
X68375000Y-49304523D01*
X68375000Y-49304523D02*
X68327380Y-49256904D01*
X68327380Y-49256904D02*
X68232142Y-49209285D01*
X68232142Y-49209285D02*
X68041666Y-49209285D01*
X68041666Y-49209285D02*
X67946428Y-49256904D01*
X67946428Y-49256904D02*
X67898809Y-49304523D01*
X67898809Y-49304523D02*
X67851190Y-49399761D01*
%TO.C,D15*%
X63555714Y-128027619D02*
X63555714Y-127027619D01*
X63555714Y-127027619D02*
X63793809Y-127027619D01*
X63793809Y-127027619D02*
X63936666Y-127075238D01*
X63936666Y-127075238D02*
X64031904Y-127170476D01*
X64031904Y-127170476D02*
X64079523Y-127265714D01*
X64079523Y-127265714D02*
X64127142Y-127456190D01*
X64127142Y-127456190D02*
X64127142Y-127599047D01*
X64127142Y-127599047D02*
X64079523Y-127789523D01*
X64079523Y-127789523D02*
X64031904Y-127884761D01*
X64031904Y-127884761D02*
X63936666Y-127980000D01*
X63936666Y-127980000D02*
X63793809Y-128027619D01*
X63793809Y-128027619D02*
X63555714Y-128027619D01*
X65079523Y-128027619D02*
X64508095Y-128027619D01*
X64793809Y-128027619D02*
X64793809Y-127027619D01*
X64793809Y-127027619D02*
X64698571Y-127170476D01*
X64698571Y-127170476D02*
X64603333Y-127265714D01*
X64603333Y-127265714D02*
X64508095Y-127313333D01*
X65984285Y-127027619D02*
X65508095Y-127027619D01*
X65508095Y-127027619D02*
X65460476Y-127503809D01*
X65460476Y-127503809D02*
X65508095Y-127456190D01*
X65508095Y-127456190D02*
X65603333Y-127408571D01*
X65603333Y-127408571D02*
X65841428Y-127408571D01*
X65841428Y-127408571D02*
X65936666Y-127456190D01*
X65936666Y-127456190D02*
X65984285Y-127503809D01*
X65984285Y-127503809D02*
X66031904Y-127599047D01*
X66031904Y-127599047D02*
X66031904Y-127837142D01*
X66031904Y-127837142D02*
X65984285Y-127932380D01*
X65984285Y-127932380D02*
X65936666Y-127980000D01*
X65936666Y-127980000D02*
X65841428Y-128027619D01*
X65841428Y-128027619D02*
X65603333Y-128027619D01*
X65603333Y-128027619D02*
X65508095Y-127980000D01*
X65508095Y-127980000D02*
X65460476Y-127932380D01*
X61361905Y-125271904D02*
X61838095Y-125271904D01*
X61266667Y-125557619D02*
X61600000Y-124557619D01*
X61600000Y-124557619D02*
X61933333Y-125557619D01*
%TO.C,R1*%
X58262619Y-94146666D02*
X57786428Y-94479999D01*
X58262619Y-94718094D02*
X57262619Y-94718094D01*
X57262619Y-94718094D02*
X57262619Y-94337142D01*
X57262619Y-94337142D02*
X57310238Y-94241904D01*
X57310238Y-94241904D02*
X57357857Y-94194285D01*
X57357857Y-94194285D02*
X57453095Y-94146666D01*
X57453095Y-94146666D02*
X57595952Y-94146666D01*
X57595952Y-94146666D02*
X57691190Y-94194285D01*
X57691190Y-94194285D02*
X57738809Y-94241904D01*
X57738809Y-94241904D02*
X57786428Y-94337142D01*
X57786428Y-94337142D02*
X57786428Y-94718094D01*
X58262619Y-93194285D02*
X58262619Y-93765713D01*
X58262619Y-93479999D02*
X57262619Y-93479999D01*
X57262619Y-93479999D02*
X57405476Y-93575237D01*
X57405476Y-93575237D02*
X57500714Y-93670475D01*
X57500714Y-93670475D02*
X57548333Y-93765713D01*
%TO.C,SW3*%
X53960000Y-104838332D02*
X54007619Y-104695475D01*
X54007619Y-104695475D02*
X54007619Y-104457380D01*
X54007619Y-104457380D02*
X53960000Y-104362142D01*
X53960000Y-104362142D02*
X53912380Y-104314523D01*
X53912380Y-104314523D02*
X53817142Y-104266904D01*
X53817142Y-104266904D02*
X53721904Y-104266904D01*
X53721904Y-104266904D02*
X53626666Y-104314523D01*
X53626666Y-104314523D02*
X53579047Y-104362142D01*
X53579047Y-104362142D02*
X53531428Y-104457380D01*
X53531428Y-104457380D02*
X53483809Y-104647856D01*
X53483809Y-104647856D02*
X53436190Y-104743094D01*
X53436190Y-104743094D02*
X53388571Y-104790713D01*
X53388571Y-104790713D02*
X53293333Y-104838332D01*
X53293333Y-104838332D02*
X53198095Y-104838332D01*
X53198095Y-104838332D02*
X53102857Y-104790713D01*
X53102857Y-104790713D02*
X53055238Y-104743094D01*
X53055238Y-104743094D02*
X53007619Y-104647856D01*
X53007619Y-104647856D02*
X53007619Y-104409761D01*
X53007619Y-104409761D02*
X53055238Y-104266904D01*
X53007619Y-103933570D02*
X54007619Y-103695475D01*
X54007619Y-103695475D02*
X53293333Y-103504999D01*
X53293333Y-103504999D02*
X54007619Y-103314523D01*
X54007619Y-103314523D02*
X53007619Y-103076428D01*
X53007619Y-102790713D02*
X53007619Y-102171666D01*
X53007619Y-102171666D02*
X53388571Y-102504999D01*
X53388571Y-102504999D02*
X53388571Y-102362142D01*
X53388571Y-102362142D02*
X53436190Y-102266904D01*
X53436190Y-102266904D02*
X53483809Y-102219285D01*
X53483809Y-102219285D02*
X53579047Y-102171666D01*
X53579047Y-102171666D02*
X53817142Y-102171666D01*
X53817142Y-102171666D02*
X53912380Y-102219285D01*
X53912380Y-102219285D02*
X53960000Y-102266904D01*
X53960000Y-102266904D02*
X54007619Y-102362142D01*
X54007619Y-102362142D02*
X54007619Y-102647856D01*
X54007619Y-102647856D02*
X53960000Y-102743094D01*
X53960000Y-102743094D02*
X53912380Y-102790713D01*
D11*
%TO.C,C1*%
X59250000Y-80110000D02*
X59250000Y-79405000D01*
X59250000Y-80110000D02*
X55010000Y-80110000D01*
X59250000Y-78075000D02*
X59250000Y-77370000D01*
X59250000Y-77370000D02*
X55010000Y-77370000D01*
X55010000Y-80110000D02*
X55010000Y-79405000D01*
X55010000Y-78075000D02*
X55010000Y-77370000D01*
%TO.C,R11*%
X40625000Y-105760000D02*
X44465000Y-105760000D01*
X40625000Y-107600000D02*
X44465000Y-107600000D01*
%TO.C,C9*%
X32005000Y-104240000D02*
X32005000Y-103535000D01*
X32005000Y-104240000D02*
X27765000Y-104240000D01*
X32005000Y-102205000D02*
X32005000Y-101500000D01*
X32005000Y-101500000D02*
X27765000Y-101500000D01*
X27765000Y-104240000D02*
X27765000Y-103535000D01*
X27765000Y-102205000D02*
X27765000Y-101500000D01*
%TO.C,M1*%
X61655000Y-125790000D02*
X60325000Y-125790000D01*
X61655000Y-124460000D02*
X61655000Y-125790000D01*
X61655000Y-123190000D02*
X61655000Y-120590000D01*
X61655000Y-123190000D02*
X58995000Y-123190000D01*
X61655000Y-120590000D02*
X58995000Y-120590000D01*
X58995000Y-123190000D02*
X58995000Y-120590000D01*
%TO.C,J3*%
X32495000Y-92630000D02*
X32495000Y-100430000D01*
X26445000Y-92630000D02*
X32495000Y-92630000D01*
X27555000Y-93980000D02*
X27555000Y-99060000D01*
X26545000Y-93980000D02*
X27555000Y-93980000D01*
X27555000Y-99060000D02*
X26545000Y-99060000D01*
X32495000Y-100430000D02*
X26445000Y-100430000D01*
X26445000Y-100430000D02*
X26445000Y-92630000D01*
%TO.C,J2*%
X63580000Y-88375000D02*
X55780000Y-88375000D01*
X63580000Y-82325000D02*
X63580000Y-88375000D01*
X62230000Y-83435000D02*
X57150000Y-83435000D01*
X62230000Y-82425000D02*
X62230000Y-83435000D01*
X57150000Y-83435000D02*
X57150000Y-82425000D01*
X55780000Y-88375000D02*
X55780000Y-82325000D01*
X55780000Y-82325000D02*
X63580000Y-82325000D01*
%TO.C,U3*%
X49875000Y-133410000D02*
X49875000Y-112970000D01*
X49875000Y-112970000D02*
X45375000Y-112970000D01*
X48625000Y-133410000D02*
X49875000Y-133410000D01*
X45375000Y-133410000D02*
X46625000Y-133410000D01*
X45375000Y-112970000D02*
X45375000Y-133410000D01*
X48625000Y-133410000D02*
G75*
G03*
X46625000Y-133410000I-1000000J0D01*
G01*
%TO.C,J4*%
X57725000Y-92075000D02*
X57725000Y-99755000D01*
X57725000Y-92075000D02*
X60385000Y-92075000D01*
X57725000Y-99755000D02*
X60385000Y-99755000D01*
X59055000Y-89475000D02*
X60385000Y-89475000D01*
X60385000Y-89475000D02*
X60385000Y-90805000D01*
X60385000Y-92075000D02*
X60385000Y-99755000D01*
%TO.C,R14*%
X53960000Y-105760000D02*
X57800000Y-105760000D01*
X53960000Y-107600000D02*
X57800000Y-107600000D01*
%TO.C,J1*%
X55645000Y-60460000D02*
X55645000Y-61460000D01*
X55645000Y-61460000D02*
X56645000Y-60960000D01*
X56645000Y-60960000D02*
X55645000Y-60460000D01*
X57035000Y-55750000D02*
X66155000Y-55750000D01*
X57035000Y-63990000D02*
X58345000Y-63990000D01*
X57035000Y-76330000D02*
X57035000Y-55750000D01*
X58345000Y-57050000D02*
X64845000Y-57050000D01*
X58345000Y-63990000D02*
X58345000Y-57050000D01*
X58345000Y-68090000D02*
X57035000Y-68090000D01*
X58345000Y-68090000D02*
X58345000Y-68090000D01*
X58345000Y-75030000D02*
X58345000Y-68090000D01*
X64845000Y-57050000D02*
X64845000Y-75030000D01*
X64845000Y-75030000D02*
X58345000Y-75030000D01*
X66155000Y-55750000D02*
X66155000Y-76330000D01*
X66155000Y-76330000D02*
X57035000Y-76330000D01*
%TO.C,U5*%
X33945000Y-57090000D02*
X33945000Y-77530000D01*
X33945000Y-77530000D02*
X38445000Y-77530000D01*
X35195000Y-57090000D02*
X33945000Y-57090000D01*
X38445000Y-57090000D02*
X37195000Y-57090000D01*
X38445000Y-77530000D02*
X38445000Y-57090000D01*
X35195000Y-57090000D02*
G75*
G03*
X37195000Y-57090000I1000000J0D01*
G01*
%TO.C,M2*%
X33595000Y-121220000D02*
X34925000Y-121220000D01*
X33595000Y-122550000D02*
X33595000Y-121220000D01*
X33595000Y-123820000D02*
X33595000Y-126420000D01*
X33595000Y-123820000D02*
X36255000Y-123820000D01*
X33595000Y-126420000D02*
X36255000Y-126420000D01*
X36255000Y-123820000D02*
X36255000Y-126420000D01*
%TO.C,D11*%
X64926761Y-122185000D02*
G75*
G03*
X64986150Y-120316134I1113239J900000D01*
G01*
%TO.C,C6*%
X37045000Y-91540000D02*
X37045000Y-90835000D01*
X37045000Y-91540000D02*
X32805000Y-91540000D01*
X37045000Y-89505000D02*
X37045000Y-88800000D01*
X37045000Y-88800000D02*
X32805000Y-88800000D01*
X32805000Y-91540000D02*
X32805000Y-90835000D01*
X32805000Y-89505000D02*
X32805000Y-88800000D01*
%TO.C,D10*%
X39438239Y-124830000D02*
G75*
G03*
X39378850Y-126698866I-1113239J-900000D01*
G01*
%TO.C,D7*%
X31236000Y-48435000D02*
X31080000Y-48435000D01*
X28920000Y-48435000D02*
X28764000Y-48435000D01*
X31078608Y-51667334D02*
G75*
G03*
X31235515Y-48435001I-1078608J1672334D01*
G01*
X31079836Y-51036129D02*
G75*
G03*
X31079999Y-48954040I-1079836J1041129D01*
G01*
X28920001Y-48954040D02*
G75*
G03*
X28920164Y-51036129I1079999J-1040960D01*
G01*
X28764485Y-48435001D02*
G75*
G03*
X28921392Y-51667334I1235515J-1559999D01*
G01*
%TO.C,D2*%
X56236000Y-48435000D02*
X56080000Y-48435000D01*
X53920000Y-48435000D02*
X53764000Y-48435000D01*
X56078608Y-51667334D02*
G75*
G03*
X56235515Y-48435001I-1078608J1672334D01*
G01*
X56079836Y-51036129D02*
G75*
G03*
X56079999Y-48954040I-1079836J1041129D01*
G01*
X53920001Y-48954040D02*
G75*
G03*
X53920164Y-51036129I1079999J-1040960D01*
G01*
X53764485Y-48435001D02*
G75*
G03*
X53921392Y-51667334I1235515J-1559999D01*
G01*
%TO.C,C3*%
X53575000Y-111860000D02*
X53575000Y-111155000D01*
X53575000Y-111860000D02*
X49335000Y-111860000D01*
X53575000Y-109825000D02*
X53575000Y-109120000D01*
X53575000Y-109120000D02*
X49335000Y-109120000D01*
X49335000Y-111860000D02*
X49335000Y-111155000D01*
X49335000Y-109825000D02*
X49335000Y-109120000D01*
%TO.C,R9*%
X65120000Y-45100000D02*
X65120000Y-41260000D01*
X66960000Y-45100000D02*
X66960000Y-41260000D01*
%TO.C,R8*%
X29560000Y-45100000D02*
X29560000Y-41260000D01*
X31400000Y-45100000D02*
X31400000Y-41260000D01*
%TO.C,R5*%
X44800000Y-45100000D02*
X44800000Y-41260000D01*
X46640000Y-45100000D02*
X46640000Y-41260000D01*
%TO.C,D5*%
X41236000Y-48435000D02*
X41080000Y-48435000D01*
X38920000Y-48435000D02*
X38764000Y-48435000D01*
X41078608Y-51667334D02*
G75*
G03*
X41235515Y-48435001I-1078608J1672334D01*
G01*
X41079836Y-51036129D02*
G75*
G03*
X41079999Y-48954040I-1079836J1041129D01*
G01*
X38920001Y-48954040D02*
G75*
G03*
X38920164Y-51036129I1079999J-1040960D01*
G01*
X38764485Y-48435001D02*
G75*
G03*
X38921392Y-51667334I1235515J-1559999D01*
G01*
%TO.C,C5*%
X31985000Y-107415000D02*
X31985000Y-106710000D01*
X31985000Y-107415000D02*
X27745000Y-107415000D01*
X31985000Y-105380000D02*
X31985000Y-104675000D01*
X31985000Y-104675000D02*
X27745000Y-104675000D01*
X27745000Y-107415000D02*
X27745000Y-106710000D01*
X27745000Y-105380000D02*
X27745000Y-104675000D01*
%TO.C,R10*%
X44465000Y-101250000D02*
X40625000Y-101250000D01*
X44465000Y-99410000D02*
X40625000Y-99410000D01*
%TO.C,U2*%
X51780000Y-97850000D02*
X51780000Y-62170000D01*
X51780000Y-62170000D02*
X47280000Y-62170000D01*
X50530000Y-97850000D02*
X51780000Y-97850000D01*
X47280000Y-97850000D02*
X48530000Y-97850000D01*
X47280000Y-62170000D02*
X47280000Y-97850000D01*
X50530000Y-97850000D02*
G75*
G03*
X48530000Y-97850000I-1000000J0D01*
G01*
%TO.C,D6*%
X36236000Y-48435000D02*
X36080000Y-48435000D01*
X33920000Y-48435000D02*
X33764000Y-48435000D01*
X36078608Y-51667334D02*
G75*
G03*
X36235515Y-48435001I-1078608J1672334D01*
G01*
X36079836Y-51036129D02*
G75*
G03*
X36079999Y-48954040I-1079836J1041129D01*
G01*
X33920001Y-48954040D02*
G75*
G03*
X33920164Y-51036129I1079999J-1040960D01*
G01*
X33764485Y-48435001D02*
G75*
G03*
X33921392Y-51667334I1235515J-1559999D01*
G01*
%TO.C,D9*%
X30548239Y-124830000D02*
G75*
G03*
X30488850Y-126698866I-1113239J-900000D01*
G01*
%TO.C,R2*%
X60040000Y-45100000D02*
X60040000Y-41260000D01*
X61880000Y-45100000D02*
X61880000Y-41260000D01*
%TO.C,D14*%
X39438239Y-121020000D02*
G75*
G03*
X39378850Y-122888866I-1113239J-900000D01*
G01*
%TO.C,D13*%
X30484448Y-121080096D02*
G75*
G03*
X30425059Y-122948962I-1113239J-900000D01*
G01*
%TO.C,D1*%
X61236000Y-48435000D02*
X61080000Y-48435000D01*
X58920000Y-48435000D02*
X58764000Y-48435000D01*
X61078608Y-51667334D02*
G75*
G03*
X61235515Y-48435001I-1078608J1672334D01*
G01*
X61079836Y-51036129D02*
G75*
G03*
X61079999Y-48954040I-1079836J1041129D01*
G01*
X58920001Y-48954040D02*
G75*
G03*
X58920164Y-51036129I1079999J-1040960D01*
G01*
X58764485Y-48435001D02*
G75*
G03*
X58921392Y-51667334I1235515J-1559999D01*
G01*
%TO.C,R6*%
X39720000Y-45100000D02*
X39720000Y-41260000D01*
X41560000Y-45100000D02*
X41560000Y-41260000D01*
%TO.C,U1*%
X33060000Y-114085000D02*
X33060000Y-109444000D01*
X33060000Y-114085000D02*
X22820000Y-114085000D01*
X33060000Y-112575000D02*
X22820000Y-112575000D01*
X33060000Y-109444000D02*
X22820000Y-109444000D01*
X29790000Y-114085000D02*
X29790000Y-112575000D01*
X26089000Y-114085000D02*
X26089000Y-112575000D01*
X22820000Y-114085000D02*
X22820000Y-109444000D01*
%TO.C,SW2*%
X43875000Y-102175000D02*
X43875000Y-103505000D01*
X42545000Y-102175000D02*
X43875000Y-102175000D01*
X41275000Y-102175000D02*
X38675000Y-102175000D01*
X41275000Y-102175000D02*
X41275000Y-104835000D01*
X38675000Y-102175000D02*
X38675000Y-104835000D01*
X41275000Y-104835000D02*
X38675000Y-104835000D01*
%TO.C,C13*%
X49430000Y-105605000D02*
X50135000Y-105605000D01*
X49430000Y-105605000D02*
X49430000Y-101365000D01*
X51465000Y-105605000D02*
X52170000Y-105605000D01*
X52170000Y-105605000D02*
X52170000Y-101365000D01*
X49430000Y-101365000D02*
X50135000Y-101365000D01*
X51465000Y-101365000D02*
X52170000Y-101365000D01*
%TO.C,C10*%
X60110000Y-78640000D02*
X60110000Y-79345000D01*
X60110000Y-78640000D02*
X64350000Y-78640000D01*
X60110000Y-80675000D02*
X60110000Y-81380000D01*
X60110000Y-81380000D02*
X64350000Y-81380000D01*
X64350000Y-78640000D02*
X64350000Y-79345000D01*
X64350000Y-80675000D02*
X64350000Y-81380000D01*
%TO.C,C7*%
X34190000Y-82785000D02*
X34895000Y-82785000D01*
X34190000Y-82785000D02*
X34190000Y-78545000D01*
X36225000Y-82785000D02*
X36930000Y-82785000D01*
X36930000Y-82785000D02*
X36930000Y-78545000D01*
X34190000Y-78545000D02*
X34895000Y-78545000D01*
X36225000Y-78545000D02*
X36930000Y-78545000D01*
%TO.C,R4*%
X49880000Y-45100000D02*
X49880000Y-41260000D01*
X51720000Y-45100000D02*
X51720000Y-41260000D01*
%TO.C,U4*%
X31075000Y-83725000D02*
X31075000Y-88366000D01*
X31075000Y-83725000D02*
X41315000Y-83725000D01*
X31075000Y-85235000D02*
X41315000Y-85235000D01*
X31075000Y-88366000D02*
X41315000Y-88366000D01*
X34345000Y-83725000D02*
X34345000Y-85235000D01*
X38046000Y-83725000D02*
X38046000Y-85235000D01*
X41315000Y-83725000D02*
X41315000Y-88366000D01*
%TO.C,D16*%
X55811761Y-125995000D02*
G75*
G03*
X55871150Y-124126134I1113239J900000D01*
G01*
%TO.C,D3*%
X51236000Y-48435000D02*
X51080000Y-48435000D01*
X48920000Y-48435000D02*
X48764000Y-48435000D01*
X51078608Y-51667334D02*
G75*
G03*
X51235515Y-48435001I-1078608J1672334D01*
G01*
X51079836Y-51036129D02*
G75*
G03*
X51079999Y-48954040I-1079836J1041129D01*
G01*
X48920001Y-48954040D02*
G75*
G03*
X48920164Y-51036129I1079999J-1040960D01*
G01*
X48764485Y-48435001D02*
G75*
G03*
X48921392Y-51667334I1235515J-1559999D01*
G01*
%TO.C,R3*%
X54960000Y-45100000D02*
X54960000Y-41260000D01*
X56800000Y-45100000D02*
X56800000Y-41260000D01*
%TO.C,R15*%
X55260000Y-100615000D02*
X51420000Y-100615000D01*
X55260000Y-98775000D02*
X51420000Y-98775000D01*
%TO.C,D4*%
X46236000Y-48435000D02*
X46080000Y-48435000D01*
X43920000Y-48435000D02*
X43764000Y-48435000D01*
X46078608Y-51667334D02*
G75*
G03*
X46235515Y-48435001I-1078608J1672334D01*
G01*
X46079836Y-51036129D02*
G75*
G03*
X46079999Y-48954040I-1079836J1041129D01*
G01*
X43920001Y-48954040D02*
G75*
G03*
X43920164Y-51036129I1079999J-1040960D01*
G01*
X43764485Y-48435001D02*
G75*
G03*
X43921392Y-51667334I1235515J-1559999D01*
G01*
%TO.C,D12*%
X55698824Y-122221651D02*
G75*
G03*
X55758213Y-120352785I1113239J900000D01*
G01*
%TO.C,C11*%
X48995000Y-101385000D02*
X48290000Y-101385000D01*
X48995000Y-101385000D02*
X48995000Y-105625000D01*
X46960000Y-101385000D02*
X46255000Y-101385000D01*
X46255000Y-101385000D02*
X46255000Y-105625000D01*
X48995000Y-105625000D02*
X48290000Y-105625000D01*
X46960000Y-105625000D02*
X46255000Y-105625000D01*
%TO.C,C2*%
X37365000Y-82765000D02*
X38070000Y-82765000D01*
X37365000Y-82765000D02*
X37365000Y-78525000D01*
X39400000Y-82765000D02*
X40105000Y-82765000D01*
X40105000Y-82765000D02*
X40105000Y-78525000D01*
X37365000Y-78525000D02*
X38070000Y-78525000D01*
X39400000Y-78525000D02*
X40105000Y-78525000D01*
%TO.C,C8*%
X44550000Y-56935000D02*
X43845000Y-56935000D01*
X44550000Y-56935000D02*
X44550000Y-61175000D01*
X42515000Y-56935000D02*
X41810000Y-56935000D01*
X41810000Y-56935000D02*
X41810000Y-61175000D01*
X44550000Y-61175000D02*
X43845000Y-61175000D01*
X42515000Y-61175000D02*
X41810000Y-61175000D01*
%TO.C,R7*%
X34640000Y-45100000D02*
X34640000Y-41260000D01*
X36480000Y-45100000D02*
X36480000Y-41260000D01*
%TO.C,C4*%
X42965000Y-134520000D02*
X42965000Y-135225000D01*
X42965000Y-134520000D02*
X47205000Y-134520000D01*
X42965000Y-136555000D02*
X42965000Y-137260000D01*
X42965000Y-137260000D02*
X47205000Y-137260000D01*
X47205000Y-134520000D02*
X47205000Y-135225000D01*
X47205000Y-136555000D02*
X47205000Y-137260000D01*
%TO.C,D8*%
X66236000Y-48435000D02*
X66080000Y-48435000D01*
X63920000Y-48435000D02*
X63764000Y-48435000D01*
X66078608Y-51667334D02*
G75*
G03*
X66235515Y-48435001I-1078608J1672334D01*
G01*
X66079836Y-51036129D02*
G75*
G03*
X66079999Y-48954040I-1079836J1041129D01*
G01*
X63920001Y-48954040D02*
G75*
G03*
X63920164Y-51036129I1079999J-1040960D01*
G01*
X63764485Y-48435001D02*
G75*
G03*
X63921392Y-51667334I1235515J-1559999D01*
G01*
%TO.C,D15*%
X64926761Y-125995000D02*
G75*
G03*
X64986150Y-124126134I1113239J900000D01*
G01*
%TO.C,R1*%
X56800000Y-92060000D02*
X56800000Y-95900000D01*
X54960000Y-92060000D02*
X54960000Y-95900000D01*
%TO.C,SW3*%
X54545000Y-104835000D02*
X54545000Y-103505000D01*
X55875000Y-104835000D02*
X54545000Y-104835000D01*
X57145000Y-104835000D02*
X59745000Y-104835000D01*
X57145000Y-104835000D02*
X57145000Y-102175000D01*
X59745000Y-104835000D02*
X59745000Y-102175000D01*
X57145000Y-102175000D02*
X59745000Y-102175000D01*
%TD*%
M02*
