M48
; DRILL file {KiCad 7.0.1} date wto, 14 mar 2023, 16:08:33
; FORMAT={-:-/ absolute / inch / decimal}
; #@! TF.CreationDate,2023-03-14T16:08:33+01:00
; #@! TF.GenerationSoftware,Kicad,Pcbnew,7.0.1
; #@! TF.FileFunction,Plated,1,2,PTH
FMAT,2
INCH
; #@! TA.AperFunction,Plated,PTH,ComponentDrill
T1C0.0276
; #@! TA.AperFunction,Plated,PTH,ViaDrill
T2C0.0315
; #@! TA.AperFunction,Plated,PTH,ComponentDrill
T3C0.0315
; #@! TA.AperFunction,Plated,PTH,ComponentDrill
T4C0.0354
; #@! TA.AperFunction,Plated,PTH,ComponentDrill
T5C0.0394
; #@! TA.AperFunction,Plated,PTH,ComponentDrill
T6C0.0402
; #@! TA.AperFunction,Plated,PTH,ComponentDrill
T7C0.0433
%
G90
G05
T1
X1.2Y-1.6
X1.2Y-1.8
X1.4Y-1.6
X1.4Y-1.8
X1.575Y-3.95
X1.575Y-4.2
X1.6Y-1.6
X1.6Y-1.8
X1.775Y-3.95
X1.775Y-4.2
X1.8Y-1.6
X1.8Y-1.8
X2.0Y-1.6
X2.0Y-1.8
X2.0Y-3.925
X2.1Y-4.2
X2.2Y-1.6
X2.2Y-1.8
X2.2Y-3.6
X2.2Y-3.8
X2.2Y-3.925
X2.3Y-4.2
X2.4Y-1.6
X2.4Y-1.8
X2.6Y-1.6
X2.6Y-1.8
T2
X1.0375Y-5.2625
X1.2125Y-5.0875
X1.675Y-3.125
X1.675Y-3.275
X2.5708Y-3.275
X2.575Y-3.6
T3
X1.1266Y-4.175
X1.1274Y-4.05
X1.225Y-4.175
X1.2258Y-4.05
X1.275Y-2.3
X1.275Y-2.4
X1.275Y-2.5
X1.275Y-2.6
X1.275Y-2.7
X1.275Y-2.8
X1.275Y-2.9
X1.275Y-3.0
X1.3258Y-3.55
X1.4Y-3.1266
X1.4Y-3.225
X1.4242Y-3.55
X1.525Y-3.1258
X1.525Y-3.2242
X1.575Y-2.3
X1.575Y-2.4
X1.575Y-2.5
X1.575Y-2.6
X1.575Y-2.7
X1.575Y-2.8
X1.575Y-2.9
X1.575Y-3.0
X1.7Y-2.2758
X1.7Y-2.3742
X1.725Y-4.5
X1.725Y-4.6
X1.725Y-4.7
X1.725Y-4.8
X1.725Y-4.9
X1.725Y-5.0
X1.725Y-5.1
X1.725Y-5.2
X1.7258Y-5.35
X1.8Y-2.5
X1.8Y-2.6
X1.8Y-2.7
X1.8Y-2.8
X1.8Y-2.9
X1.8Y-3.0
X1.8Y-3.1
X1.8Y-3.2
X1.8Y-3.3
X1.8Y-3.4
X1.8Y-3.5
X1.8Y-3.6
X1.8Y-3.7
X1.8Y-3.8
X1.8242Y-5.35
X1.875Y-4.0258
X1.875Y-4.1242
X1.9766Y-4.35
X2.0Y-4.025
X2.0Y-4.1234
X2.025Y-4.5
X2.025Y-4.6
X2.025Y-4.7
X2.025Y-4.8
X2.025Y-4.9
X2.025Y-5.0
X2.025Y-5.1
X2.025Y-5.2
X2.075Y-4.35
X2.1Y-2.5
X2.1Y-2.6
X2.1Y-2.7
X2.1Y-2.8
X2.1Y-2.9
X2.1Y-3.0
X2.1Y-3.1
X2.1Y-3.2
X2.1Y-3.3
X2.1Y-3.4
X2.1Y-3.5
X2.1Y-3.6
X2.1Y-3.7
X2.1Y-3.8
X2.2Y-3.1
X2.2984Y-3.1
X2.4008Y-3.15
X2.4992Y-3.15
T4
X1.1563Y-4.8024
X1.1589Y-4.95
X1.1811Y-1.9183
X1.1811Y-2.0183
X1.2563Y-4.8024
X1.2589Y-4.95
X1.378Y-1.9183
X1.378Y-2.0183
X1.5089Y-4.8
X1.5089Y-4.95
X1.5748Y-1.9183
X1.5748Y-2.0183
X1.6089Y-4.8
X1.6089Y-4.95
X1.7717Y-1.9183
X1.7717Y-2.0183
X1.9685Y-1.9183
X1.9685Y-2.0183
X2.1367Y-4.7764
X2.1411Y-4.925
X2.1654Y-1.9183
X2.1654Y-2.0183
X2.2367Y-4.7764
X2.2411Y-4.925
X2.3622Y-1.9183
X2.3622Y-2.0183
X2.5Y-4.775
X2.5Y-4.925
X2.5591Y-1.9183
X2.5591Y-2.0183
X2.6Y-4.775
X2.6Y-4.925
T5
X1.375Y-4.8248
X1.375Y-4.9248
X1.575Y-4.075
X1.675Y-4.075
X2.1998Y-4.075
X2.2998Y-4.075
X2.325Y-3.575
X2.325Y-3.675
X2.325Y-3.775
X2.325Y-3.875
X2.375Y-2.4
X2.375Y-2.5
X2.375Y-2.6
X2.375Y-2.7
X2.375Y-2.8
X2.375Y-4.8
X2.375Y-4.9
X2.475Y-2.4
X2.475Y-2.5
X2.475Y-2.6
X2.475Y-2.7
X2.475Y-2.8
T6
X1.175Y-3.7
X1.175Y-3.8
X1.175Y-3.9
X2.25Y-3.375
X2.35Y-3.375
X2.45Y-3.375
T7
X1.0Y-4.3628
X1.1Y-4.3628
X1.2Y-4.3628
X1.325Y-3.425
X1.425Y-3.425
X1.525Y-3.425
T0
M30
