%TF.GenerationSoftware,KiCad,Pcbnew,7.0.1*%
%TF.CreationDate,2023-03-14T16:08:26+01:00*%
%TF.ProjectId,CxCat,43784361-742e-46b6-9963-61645f706362,rev?*%
%TF.SameCoordinates,Original*%
%TF.FileFunction,Copper,L1,Top*%
%TF.FilePolarity,Positive*%
%FSLAX46Y46*%
G04 Gerber Fmt 4.6, Leading zero omitted, Abs format (unit mm)*
G04 Created by KiCad (PCBNEW 7.0.1) date 2023-03-14 16:08:26*
%MOMM*%
%LPD*%
G01*
G04 APERTURE LIST*
G04 Aperture macros list*
%AMRoundRect*
0 Rectangle with rounded corners*
0 $1 Rounding radius*
0 $2 $3 $4 $5 $6 $7 $8 $9 X,Y pos of 4 corners*
0 Add a 4 corners polygon primitive as box body*
4,1,4,$2,$3,$4,$5,$6,$7,$8,$9,$2,$3,0*
0 Add four circle primitives for the rounded corners*
1,1,$1+$1,$2,$3*
1,1,$1+$1,$4,$5*
1,1,$1+$1,$6,$7*
1,1,$1+$1,$8,$9*
0 Add four rect primitives between the rounded corners*
20,1,$1+$1,$2,$3,$4,$5,0*
20,1,$1+$1,$4,$5,$6,$7,0*
20,1,$1+$1,$6,$7,$8,$9,0*
20,1,$1+$1,$8,$9,$2,$3,0*%
G04 Aperture macros list end*
%TA.AperFunction,ComponentPad*%
%ADD10C,1.600000*%
%TD*%
%TA.AperFunction,ComponentPad*%
%ADD11C,1.400000*%
%TD*%
%TA.AperFunction,ComponentPad*%
%ADD12O,1.400000X1.400000*%
%TD*%
%TA.AperFunction,ComponentPad*%
%ADD13R,1.700000X1.700000*%
%TD*%
%TA.AperFunction,ComponentPad*%
%ADD14O,1.700000X1.700000*%
%TD*%
%TA.AperFunction,ComponentPad*%
%ADD15R,2.030000X1.730000*%
%TD*%
%TA.AperFunction,ComponentPad*%
%ADD16O,2.030000X1.730000*%
%TD*%
%TA.AperFunction,ComponentPad*%
%ADD17R,1.730000X2.030000*%
%TD*%
%TA.AperFunction,ComponentPad*%
%ADD18O,1.730000X2.030000*%
%TD*%
%TA.AperFunction,ComponentPad*%
%ADD19R,2.400000X1.600000*%
%TD*%
%TA.AperFunction,ComponentPad*%
%ADD20O,2.400000X1.600000*%
%TD*%
%TA.AperFunction,ComponentPad*%
%ADD21RoundRect,0.250000X-0.600000X-0.600000X0.600000X-0.600000X0.600000X0.600000X-0.600000X0.600000X0*%
%TD*%
%TA.AperFunction,ComponentPad*%
%ADD22C,1.700000*%
%TD*%
%TA.AperFunction,ComponentPad*%
%ADD23R,1.800000X1.800000*%
%TD*%
%TA.AperFunction,ComponentPad*%
%ADD24O,1.800000X1.800000*%
%TD*%
%TA.AperFunction,ComponentPad*%
%ADD25C,1.800000*%
%TD*%
%TA.AperFunction,ComponentPad*%
%ADD26R,1.905000X2.000000*%
%TD*%
%TA.AperFunction,ComponentPad*%
%ADD27O,1.905000X2.000000*%
%TD*%
%TA.AperFunction,ViaPad*%
%ADD28C,2.000000*%
%TD*%
%TA.AperFunction,Conductor*%
%ADD29C,1.240000*%
%TD*%
G04 APERTURE END LIST*
D10*
%TO.P,C1,1*%
%TO.N,+5V*%
X58380000Y-78740000D03*
%TO.P,C1,2*%
%TO.N,GND*%
X55880000Y-78740000D03*
%TD*%
D11*
%TO.P,R11,1*%
%TO.N,Net-(R10-Pad2)*%
X40005000Y-106680000D03*
D12*
%TO.P,R11,2*%
%TO.N,/Input right/STATE*%
X45085000Y-106680000D03*
%TD*%
D10*
%TO.P,C9,1*%
%TO.N,VCC*%
X31135000Y-102870000D03*
%TO.P,C9,2*%
%TO.N,GND*%
X28635000Y-102870000D03*
%TD*%
D13*
%TO.P,M1,1,+*%
%TO.N,Net-(D15-A)*%
X60325000Y-124460000D03*
D14*
%TO.P,M1,2,-*%
%TO.N,Net-(D11-A)*%
X60325000Y-121920000D03*
%TD*%
D15*
%TO.P,J3,1,Pin_1*%
%TO.N,GND*%
X29845000Y-93980000D03*
D16*
%TO.P,J3,2,Pin_2*%
%TO.N,unconnected-(J3-Pin_2-Pad2)*%
X29845000Y-96520000D03*
%TO.P,J3,3,Pin_3*%
%TO.N,VCC*%
X29845000Y-99060000D03*
%TD*%
D17*
%TO.P,J2,1,Pin_1*%
%TO.N,GND*%
X62230000Y-85725000D03*
D18*
%TO.P,J2,2,Pin_2*%
%TO.N,Net-(J2-Pin_2)*%
X59690000Y-85725000D03*
%TO.P,J2,3,Pin_3*%
%TO.N,+5V*%
X57150000Y-85725000D03*
%TD*%
D19*
%TO.P,U3,1,EN1\u002C2*%
%TO.N,/Engines/1-2 ENABLE*%
X51435000Y-132080000D03*
D20*
%TO.P,U3,2,1A*%
%TO.N,/Engines/1*%
X51435000Y-129540000D03*
%TO.P,U3,3,1Y*%
%TO.N,Net-(D15-A)*%
X51435000Y-127000000D03*
%TO.P,U3,4,GND*%
%TO.N,GND*%
X51435000Y-124460000D03*
%TO.P,U3,5,GND*%
X51435000Y-121920000D03*
%TO.P,U3,6,2Y*%
%TO.N,Net-(D11-A)*%
X51435000Y-119380000D03*
%TO.P,U3,7,2A*%
%TO.N,/Engines/2*%
X51435000Y-116840000D03*
%TO.P,U3,8,VCC2*%
%TO.N,Net-(D11-K)*%
X51435000Y-114300000D03*
%TO.P,U3,9,EN3\u002C4*%
%TO.N,/Engines/3-4 ENABLE*%
X43815000Y-114300000D03*
%TO.P,U3,10,3A*%
%TO.N,/Engines/3*%
X43815000Y-116840000D03*
%TO.P,U3,11,3Y*%
%TO.N,Net-(D13-A)*%
X43815000Y-119380000D03*
%TO.P,U3,12,GND*%
%TO.N,GND*%
X43815000Y-121920000D03*
%TO.P,U3,13,GND*%
X43815000Y-124460000D03*
%TO.P,U3,14,4Y*%
%TO.N,Net-(D10-K)*%
X43815000Y-127000000D03*
%TO.P,U3,15,4A*%
%TO.N,/Engines/4*%
X43815000Y-129540000D03*
%TO.P,U3,16,VCC1*%
%TO.N,Net-(D11-K)*%
X43815000Y-132080000D03*
%TD*%
D13*
%TO.P,J4,1,Pin_1*%
%TO.N,GND*%
X59055000Y-90805000D03*
D14*
%TO.P,J4,2,Pin_2*%
%TO.N,Net-(J4-Pin_2)*%
X59055000Y-93345000D03*
%TO.P,J4,3,Pin_3*%
%TO.N,Net-(J4-Pin_3)*%
X59055000Y-95885000D03*
%TO.P,J4,4,Pin_4*%
%TO.N,+5V*%
X59055000Y-98425000D03*
%TD*%
D11*
%TO.P,R14,1*%
%TO.N,+5V*%
X53340000Y-106680000D03*
D12*
%TO.P,R14,2*%
%TO.N,Net-(R14-Pad2)*%
X58420000Y-106680000D03*
%TD*%
D21*
%TO.P,J1,1,MOSI*%
%TO.N,/Eyes/DATA*%
X60325000Y-60960000D03*
D22*
%TO.P,J1,2,VCC*%
%TO.N,+5V*%
X62865000Y-60960000D03*
%TO.P,J1,3,NC*%
%TO.N,unconnected-(J1-NC-Pad3)*%
X60325000Y-63500000D03*
%TO.P,J1,4,GND*%
%TO.N,GND*%
X62865000Y-63500000D03*
%TO.P,J1,5,~{RST}*%
%TO.N,Net-(J1-~{RST})*%
X60325000Y-66040000D03*
%TO.P,J1,6,GND*%
%TO.N,GND*%
X62865000Y-66040000D03*
%TO.P,J1,7,SCK*%
%TO.N,/Eyes/CLOCK*%
X60325000Y-68580000D03*
%TO.P,J1,8,GND*%
%TO.N,GND*%
X62865000Y-68580000D03*
%TO.P,J1,9,MISO*%
%TO.N,/Eyes/LATCH*%
X60325000Y-71120000D03*
%TO.P,J1,10,GND*%
%TO.N,GND*%
X62865000Y-71120000D03*
%TD*%
D19*
%TO.P,U5,1,QB*%
%TO.N,Net-(D7-A)*%
X32385000Y-58420000D03*
D20*
%TO.P,U5,2,QC*%
%TO.N,Net-(D6-A)*%
X32385000Y-60960000D03*
%TO.P,U5,3,QD*%
%TO.N,Net-(D5-A)*%
X32385000Y-63500000D03*
%TO.P,U5,4,QE*%
%TO.N,Net-(D4-A)*%
X32385000Y-66040000D03*
%TO.P,U5,5,QF*%
%TO.N,Net-(D3-A)*%
X32385000Y-68580000D03*
%TO.P,U5,6,QG*%
%TO.N,Net-(D2-A)*%
X32385000Y-71120000D03*
%TO.P,U5,7,QH*%
%TO.N,Net-(D1-A)*%
X32385000Y-73660000D03*
%TO.P,U5,8,GND*%
%TO.N,GND*%
X32385000Y-76200000D03*
%TO.P,U5,9,QH'*%
%TO.N,unconnected-(U5-QH'-Pad9)*%
X40005000Y-76200000D03*
%TO.P,U5,10,~{SRCLR}*%
%TO.N,+5V*%
X40005000Y-73660000D03*
%TO.P,U5,11,SRCLK*%
%TO.N,/Eyes/CLOCK*%
X40005000Y-71120000D03*
%TO.P,U5,12,RCLK*%
%TO.N,/Eyes/LATCH*%
X40005000Y-68580000D03*
%TO.P,U5,13,~{OE}*%
%TO.N,GND*%
X40005000Y-66040000D03*
%TO.P,U5,14,SER*%
%TO.N,/Eyes/DATA*%
X40005000Y-63500000D03*
%TO.P,U5,15,QA*%
%TO.N,Net-(D8-A)*%
X40005000Y-60960000D03*
%TO.P,U5,16,VCC*%
%TO.N,+5V*%
X40005000Y-58420000D03*
%TD*%
D13*
%TO.P,M2,1,+*%
%TO.N,Net-(D13-A)*%
X34925000Y-122550000D03*
D14*
%TO.P,M2,2,-*%
%TO.N,Net-(D10-K)*%
X34925000Y-125090000D03*
%TD*%
D23*
%TO.P,D11,1,K*%
%TO.N,Net-(D11-K)*%
X66040000Y-121285000D03*
D24*
%TO.P,D11,2,A*%
%TO.N,Net-(D11-A)*%
X63500000Y-121285000D03*
%TD*%
D10*
%TO.P,C6,1*%
%TO.N,VCC*%
X36175000Y-90170000D03*
%TO.P,C6,2*%
%TO.N,GND*%
X33675000Y-90170000D03*
%TD*%
D23*
%TO.P,D10,1,K*%
%TO.N,Net-(D10-K)*%
X38325000Y-125730000D03*
D24*
%TO.P,D10,2,A*%
%TO.N,GND*%
X40865000Y-125730000D03*
%TD*%
D23*
%TO.P,D7,1,K*%
%TO.N,Net-(D7-K)*%
X30000000Y-48725000D03*
D25*
%TO.P,D7,2,A*%
%TO.N,Net-(D7-A)*%
X30000000Y-51265000D03*
%TD*%
D23*
%TO.P,D2,1,K*%
%TO.N,Net-(D2-K)*%
X55000000Y-48725000D03*
D25*
%TO.P,D2,2,A*%
%TO.N,Net-(D2-A)*%
X55000000Y-51265000D03*
%TD*%
D10*
%TO.P,C3,1*%
%TO.N,Net-(D11-K)*%
X52705000Y-110490000D03*
%TO.P,C3,2*%
%TO.N,GND*%
X50205000Y-110490000D03*
%TD*%
D11*
%TO.P,R9,1*%
%TO.N,Net-(D8-K)*%
X66040000Y-45720000D03*
D12*
%TO.P,R9,2*%
%TO.N,GND*%
X66040000Y-40640000D03*
%TD*%
D11*
%TO.P,R8,1*%
%TO.N,Net-(D7-K)*%
X30480000Y-45720000D03*
D12*
%TO.P,R8,2*%
%TO.N,GND*%
X30480000Y-40640000D03*
%TD*%
D11*
%TO.P,R5,1*%
%TO.N,Net-(D4-K)*%
X45720000Y-45720000D03*
D12*
%TO.P,R5,2*%
%TO.N,GND*%
X45720000Y-40640000D03*
%TD*%
D23*
%TO.P,D5,1,K*%
%TO.N,Net-(D5-K)*%
X40000000Y-48725000D03*
D25*
%TO.P,D5,2,A*%
%TO.N,Net-(D5-A)*%
X40000000Y-51265000D03*
%TD*%
D10*
%TO.P,C5,1*%
%TO.N,VCC*%
X31115000Y-106045000D03*
%TO.P,C5,2*%
%TO.N,GND*%
X28615000Y-106045000D03*
%TD*%
D11*
%TO.P,R10,1*%
%TO.N,+5V*%
X45085000Y-100330000D03*
D12*
%TO.P,R10,2*%
%TO.N,Net-(R10-Pad2)*%
X40005000Y-100330000D03*
%TD*%
D19*
%TO.P,U2,1,PC6/~{RESET}*%
%TO.N,Net-(J1-~{RST})*%
X53340000Y-96520000D03*
D20*
%TO.P,U2,2,PD0*%
%TO.N,Net-(J4-Pin_3)*%
X53340000Y-93980000D03*
%TO.P,U2,3,PD1*%
%TO.N,Net-(J4-Pin_2)*%
X53340000Y-91440000D03*
%TO.P,U2,4,PD2*%
%TO.N,/Input left/STATE*%
X53340000Y-88900000D03*
%TO.P,U2,5,PD3*%
%TO.N,/Input right/STATE*%
X53340000Y-86360000D03*
%TO.P,U2,6,PD4*%
%TO.N,Net-(J2-Pin_2)*%
X53340000Y-83820000D03*
%TO.P,U2,7,VCC*%
%TO.N,+5V*%
X53340000Y-81280000D03*
%TO.P,U2,8,GND*%
%TO.N,GND*%
X53340000Y-78740000D03*
%TO.P,U2,9,PB6/XTAL1*%
%TO.N,unconnected-(U2-PB6{slash}XTAL1-Pad9)*%
X53340000Y-76200000D03*
%TO.P,U2,10,PB7/XTAL2*%
%TO.N,unconnected-(U2-PB7{slash}XTAL2-Pad10)*%
X53340000Y-73660000D03*
%TO.P,U2,11,PD5*%
%TO.N,unconnected-(U2-PD5-Pad11)*%
X53340000Y-71120000D03*
%TO.P,U2,12,PD6*%
%TO.N,unconnected-(U2-PD6-Pad12)*%
X53340000Y-68580000D03*
%TO.P,U2,13,PD7*%
%TO.N,unconnected-(U2-PD7-Pad13)*%
X53340000Y-66040000D03*
%TO.P,U2,14,PB0*%
%TO.N,unconnected-(U2-PB0-Pad14)*%
X53340000Y-63500000D03*
%TO.P,U2,15,PB1*%
%TO.N,unconnected-(U2-PB1-Pad15)*%
X45720000Y-63500000D03*
%TO.P,U2,16,PB2*%
%TO.N,unconnected-(U2-PB2-Pad16)*%
X45720000Y-66040000D03*
%TO.P,U2,17,PB3*%
%TO.N,/Eyes/DATA*%
X45720000Y-68580000D03*
%TO.P,U2,18,PB4*%
%TO.N,/Eyes/LATCH*%
X45720000Y-71120000D03*
%TO.P,U2,19,PB5*%
%TO.N,/Eyes/CLOCK*%
X45720000Y-73660000D03*
%TO.P,U2,20,AVCC*%
%TO.N,+5V*%
X45720000Y-76200000D03*
%TO.P,U2,21,AREF*%
%TO.N,unconnected-(U2-AREF-Pad21)*%
X45720000Y-78740000D03*
%TO.P,U2,22,AGND*%
%TO.N,GND*%
X45720000Y-81280000D03*
%TO.P,U2,23,PC0*%
%TO.N,/Engines/2*%
X45720000Y-83820000D03*
%TO.P,U2,24,PC1*%
%TO.N,/Engines/1*%
X45720000Y-86360000D03*
%TO.P,U2,25,PC2*%
%TO.N,/Engines/1-2 ENABLE*%
X45720000Y-88900000D03*
%TO.P,U2,26,PC3*%
%TO.N,/Engines/4*%
X45720000Y-91440000D03*
%TO.P,U2,27,PC4*%
%TO.N,/Engines/3*%
X45720000Y-93980000D03*
%TO.P,U2,28,PC5*%
%TO.N,/Engines/3-4 ENABLE*%
X45720000Y-96520000D03*
%TD*%
D23*
%TO.P,D6,1,K*%
%TO.N,Net-(D6-K)*%
X35000000Y-48725000D03*
D25*
%TO.P,D6,2,A*%
%TO.N,Net-(D6-A)*%
X35000000Y-51265000D03*
%TD*%
D23*
%TO.P,D9,1,K*%
%TO.N,Net-(D11-K)*%
X29435000Y-125730000D03*
D24*
%TO.P,D9,2,A*%
%TO.N,Net-(D10-K)*%
X31975000Y-125730000D03*
%TD*%
D11*
%TO.P,R2,1*%
%TO.N,Net-(D1-K)*%
X60960000Y-45720000D03*
D12*
%TO.P,R2,2*%
%TO.N,GND*%
X60960000Y-40640000D03*
%TD*%
D23*
%TO.P,D14,1,K*%
%TO.N,Net-(D13-A)*%
X38325000Y-121920000D03*
D24*
%TO.P,D14,2,A*%
%TO.N,GND*%
X40865000Y-121920000D03*
%TD*%
D23*
%TO.P,D13,1,K*%
%TO.N,Net-(D11-K)*%
X29371209Y-121980096D03*
D24*
%TO.P,D13,2,A*%
%TO.N,Net-(D13-A)*%
X31911209Y-121980096D03*
%TD*%
D23*
%TO.P,D1,1,K*%
%TO.N,Net-(D1-K)*%
X60000000Y-48725000D03*
D25*
%TO.P,D1,2,A*%
%TO.N,Net-(D1-A)*%
X60000000Y-51265000D03*
%TD*%
D11*
%TO.P,R6,1*%
%TO.N,Net-(D5-K)*%
X40640000Y-45720000D03*
D12*
%TO.P,R6,2*%
%TO.N,GND*%
X40640000Y-40640000D03*
%TD*%
D26*
%TO.P,U1,1,IN*%
%TO.N,VCC*%
X30480000Y-110815000D03*
D27*
%TO.P,U1,2,GND*%
%TO.N,GND*%
X27940000Y-110815000D03*
%TO.P,U1,3,OUT*%
%TO.N,Net-(D11-K)*%
X25400000Y-110815000D03*
%TD*%
D13*
%TO.P,SW2,1,1*%
%TO.N,GND*%
X42545000Y-103505000D03*
D14*
%TO.P,SW2,2,2*%
%TO.N,Net-(R10-Pad2)*%
X40005000Y-103505000D03*
%TD*%
D10*
%TO.P,C13,1*%
%TO.N,+5V*%
X50800000Y-104735000D03*
%TO.P,C13,2*%
%TO.N,/Input left/STATE*%
X50800000Y-102235000D03*
%TD*%
%TO.P,C10,1*%
%TO.N,+5V*%
X60980000Y-80010000D03*
%TO.P,C10,2*%
%TO.N,GND*%
X63480000Y-80010000D03*
%TD*%
%TO.P,C7,1*%
%TO.N,+5V*%
X35560000Y-81915000D03*
%TO.P,C7,2*%
%TO.N,GND*%
X35560000Y-79415000D03*
%TD*%
D11*
%TO.P,R4,1*%
%TO.N,Net-(D3-K)*%
X50800000Y-45720000D03*
D12*
%TO.P,R4,2*%
%TO.N,GND*%
X50800000Y-40640000D03*
%TD*%
D26*
%TO.P,U4,1,GND*%
%TO.N,GND*%
X33655000Y-86995000D03*
D27*
%TO.P,U4,2,VO*%
%TO.N,+5V*%
X36195000Y-86995000D03*
%TO.P,U4,3,VI*%
%TO.N,VCC*%
X38735000Y-86995000D03*
%TD*%
D23*
%TO.P,D16,1,K*%
%TO.N,Net-(D15-A)*%
X56925000Y-125095000D03*
D24*
%TO.P,D16,2,A*%
%TO.N,GND*%
X54385000Y-125095000D03*
%TD*%
D23*
%TO.P,D3,1,K*%
%TO.N,Net-(D3-K)*%
X50000000Y-48725000D03*
D25*
%TO.P,D3,2,A*%
%TO.N,Net-(D3-A)*%
X50000000Y-51265000D03*
%TD*%
D11*
%TO.P,R3,1*%
%TO.N,Net-(D2-K)*%
X55880000Y-45720000D03*
D12*
%TO.P,R3,2*%
%TO.N,GND*%
X55880000Y-40640000D03*
%TD*%
D11*
%TO.P,R15,1*%
%TO.N,Net-(R14-Pad2)*%
X55880000Y-99695000D03*
D12*
%TO.P,R15,2*%
%TO.N,/Input left/STATE*%
X50800000Y-99695000D03*
%TD*%
D23*
%TO.P,D4,1,K*%
%TO.N,Net-(D4-K)*%
X45000000Y-48725000D03*
D25*
%TO.P,D4,2,A*%
%TO.N,Net-(D4-A)*%
X45000000Y-51265000D03*
%TD*%
D23*
%TO.P,D12,1,K*%
%TO.N,Net-(D11-A)*%
X56812063Y-121321651D03*
D24*
%TO.P,D12,2,A*%
%TO.N,GND*%
X54272063Y-121321651D03*
%TD*%
D10*
%TO.P,C11,1*%
%TO.N,+5V*%
X47625000Y-102255000D03*
%TO.P,C11,2*%
%TO.N,/Input right/STATE*%
X47625000Y-104755000D03*
%TD*%
%TO.P,C2,1*%
%TO.N,+5V*%
X38735000Y-81895000D03*
%TO.P,C2,2*%
%TO.N,GND*%
X38735000Y-79395000D03*
%TD*%
%TO.P,C8,1*%
%TO.N,+5V*%
X43180000Y-57805000D03*
%TO.P,C8,2*%
%TO.N,GND*%
X43180000Y-60305000D03*
%TD*%
D11*
%TO.P,R7,1*%
%TO.N,Net-(D6-K)*%
X35560000Y-45720000D03*
D12*
%TO.P,R7,2*%
%TO.N,GND*%
X35560000Y-40640000D03*
%TD*%
D10*
%TO.P,C4,1*%
%TO.N,Net-(D11-K)*%
X43835000Y-135890000D03*
%TO.P,C4,2*%
%TO.N,GND*%
X46335000Y-135890000D03*
%TD*%
D23*
%TO.P,D8,1,K*%
%TO.N,Net-(D8-K)*%
X65000000Y-48725000D03*
D25*
%TO.P,D8,2,A*%
%TO.N,Net-(D8-A)*%
X65000000Y-51265000D03*
%TD*%
D23*
%TO.P,D15,1,K*%
%TO.N,Net-(D11-K)*%
X66040000Y-125095000D03*
D24*
%TO.P,D15,2,A*%
%TO.N,Net-(D15-A)*%
X63500000Y-125095000D03*
%TD*%
D11*
%TO.P,R1,1*%
%TO.N,+5V*%
X55880000Y-91440000D03*
D12*
%TO.P,R1,2*%
%TO.N,Net-(J1-~{RST})*%
X55880000Y-96520000D03*
%TD*%
D13*
%TO.P,SW3,1,1*%
%TO.N,GND*%
X55875000Y-103505000D03*
D14*
%TO.P,SW3,2,2*%
%TO.N,Net-(R14-Pad2)*%
X58415000Y-103505000D03*
%TD*%
D28*
%TO.N,+5V*%
X42545000Y-79375000D03*
X42545000Y-83185000D03*
%TO.N,GND*%
X65405000Y-91440000D03*
X65299500Y-83185000D03*
%TO.N,Net-(D11-K)*%
X26352500Y-133667500D03*
X30797500Y-129222500D03*
%TD*%
D29*
%TO.N,+5V*%
X42545000Y-83185000D02*
X42545000Y-79375000D01*
%TO.N,GND*%
X65299500Y-91334500D02*
X65405000Y-91440000D01*
X65405000Y-83290500D02*
X65299500Y-83185000D01*
X65405000Y-91440000D02*
X65405000Y-83290500D01*
%TO.N,Net-(D11-K)*%
X26352500Y-133667500D02*
X30797500Y-129222500D01*
%TD*%
M02*
